<?xml version="1.0" encoding="UTF-8"?><svg id="Layer_1" xmlns="http://www.w3.org/2000/svg" viewBox="0 0 356.5 70"><defs><style>.cls-1,.cls-2{stroke:#fbfbfb;stroke-miterlimit:10;stroke-width:.78px;}.cls-1,.cls-3{fill:#c00717;}.cls-2,.cls-4{fill:#303333;}.cls-5{fill:#fbfbfb;}</style></defs><g><path class="cls-2" d="M38.41,51.67l-10.54,12.01c-14.51,15.36-36.12-5.59-22.72-22.06l5.68,5.51c-6.67,8.18,4.06,18.63,11.3,11.01,.02-.02,4.96-5.58,5.32-5.98l.02-.02c.35-.4,5.22-6.04,5.24-6.05,6.64-8.21-4.13-18.62-11.34-10.97l-5.68-5.51c14.52-15.37,36.11,5.6,22.72,22.06Z"/><path class="cls-1" d="M20.04,6.7l-10.54,12.01c-13.39,16.46,8.2,37.43,22.72,22.06l-5.68-5.51c-7.21,7.65-17.98-2.76-11.34-10.97,.02-.02,4.89-5.65,5.24-6.06l.02-.02c.35-.4,5.3-5.96,5.31-5.98,7.24-7.62,17.97,2.83,11.3,11.01l5.68,5.51C56.16,12.29,34.56-8.67,20.04,6.7Z"/></g><g><path class="cls-3" d="M80.11,55.03c0,2.81-1.34,4.22-4.01,4.22h-13.69c-2.6,0-3.9-1.41-3.9-4.22V17.32c0-2.83,1.3-4.25,3.9-4.25h13.69c2.67,0,4.01,1.42,4.01,4.25v10.8h-6.54v-9.12h-8.5V53.32h8.5v-9.71h6.54v11.42Z"/><path class="cls-3" d="M91.41,59.25h-6.31V13.07h6.31V59.25Z"/><path class="cls-3" d="M115.02,59.25h-6.39v-1.03c-1.48,.26-2.96,.51-4.46,.77-1.81,.29-3.31,.44-4.49,.44-2.34,0-3.51-1.23-3.51-3.69V29.44h6.37v24.2l6.09-.15V29.44h6.39v29.8Z"/><path class="cls-3" d="M131.91,59.25h-7.12c-2.38,0-3.56-1.23-3.56-3.69v-20.36h-3.03v-5.75h3.03v-8.08h6.39v8.08h4.12v5.75h-4.12v18.29h4.29v5.75Z"/><path class="cls-3" d="M153.78,55.56c0,2.46-1.19,3.69-3.56,3.69h-11.13c-2.41,0-3.62-1.23-3.62-3.69v-22.43c0-2.46,1.21-3.69,3.62-3.69h11.13c2.37,0,3.56,1.23,3.56,3.69v7.08h-6.25v-5.13h-5.75v18.56h5.75v-5.7h6.25v7.61Z"/><path class="cls-3" d="M177.29,59.25h-6.45v-24.17l-6.03,.12v24.05h-6.42V13.07h6.42V30.53c1.5-.24,2.99-.48,4.49-.74,1.89-.31,3.38-.47,4.49-.47,2.34,0,3.51,1.21,3.51,3.63v26.29Z"/><path class="cls-4" d="M215.65,55.03c0,2.81-1.34,4.22-4.01,4.22h-13.69c-2.6,0-3.9-1.41-3.9-4.22V17.32c0-2.83,1.3-4.25,3.9-4.25h13.69c2.67,0,4.01,1.42,4.01,4.25v10.8h-6.53v-9.12h-8.5V53.32h8.5v-9.71h6.53v11.42Z"/><path class="cls-4" d="M227.01,25.16h-6.42v-6.96h6.42v6.96Zm-.06,34.08h-6.31V29.44h6.31v29.8Z"/><path class="cls-4" d="M243.95,59.25h-7.12c-2.38,0-3.56-1.23-3.56-3.69v-20.36h-3.03v-5.75h3.03v-8.08h6.39v8.08h4.12v5.75h-4.12v18.29h4.29v5.75Z"/><path class="cls-4" d="M266.7,29.44l-7.1,29.42-2.72,11.27h-6.56l2.94-11.12-7.18-29.57h6.59l3.73,19.59,3.73-19.59h6.56Z"/><path class="cls-5" d="M299.29,59.25h-17.25V13.07h6.56V53.08h10.69v6.17Z"/><path class="cls-5" d="M309.38,25.16h-6.42v-6.96h6.42v6.96Zm-.06,34.08h-6.31V29.44h6.31v29.8Z"/><path class="cls-5" d="M333,59.25h-6.45v-24.17l-6.03,.12v24.05h-6.42V29.44h6.42v1.09c1.5-.26,2.98-.5,4.46-.74,1.83-.31,3.34-.47,4.52-.47,2.34,0,3.51,1.21,3.51,3.63v26.29Z"/><path class="cls-5" d="M356.5,59.25h-6.84l-5.64-13.66v13.66h-6.42V13.07h6.42v27.74l5.08-11.36h6.7v.12l-6.54,13.54,7.24,16.14Z"/></g></svg>