<?xml version="1.0" encoding="UTF-8"?><svg id="Layer_1" xmlns="http://www.w3.org/2000/svg" viewBox="0 0 612 612"><defs><style>.cls-1{opacity:.24;}.cls-2{stroke:#901a25;stroke-miterlimit:10;stroke-width:3.71px;}</style></defs><g class="cls-1"><g><path class="cls-2" d="M185.73,244.71c.52-.16,1.06-.27,1.63-.3,.28-.02,.55,.02,.82,.03-.47-.45-.87-.97-1.19-1.54-.31,.68-.74,1.29-1.26,1.82Z"/><path class="cls-2" d="M310.75,180.15c.62,.44,1.19,.95,1.65,1.57,.4-.69,.93-1.29,1.54-1.81-.53,.18-1.08,.32-1.66,.35-.52,.03-1.03-.02-1.52-.11Z"/><path class="cls-2" d="M197.22,217.89c-.47,1.6-1.57,2.94-3.05,3.67,.02,.1,.04,.2,.06,.3,.99-.67,2.14-1.1,3.42-1.18,.7-.04,1.36,.05,2.01,.21-1.09-.72-1.94-1.76-2.43-2.99Z"/><path class="cls-2" d="M312.5,189.9c.12-.01,.22-.05,.34-.06,.15,0,.29,.02,.44,.02-.14-.16-.3-.3-.43-.48-.1,.18-.23,.34-.35,.51Z"/><path class="cls-2" d="M330.01,191.31c.21,.2,.41,.42,.6,.64,.16-.25,.34-.5,.53-.73-.22,.03-.43,.09-.65,.11-.16,0-.32-.02-.48-.02Z"/><path class="cls-2" d="M318.61,192.15c.1,.11,.21,.21,.3,.32,.09-.13,.18-.25,.27-.37-.12,.01-.23,.05-.35,.06-.07,0-.14-.01-.22,0Z"/><path class="cls-2" d="M186.63,236.91c.28-.66,.64-1.27,1.1-1.81l-2.28,.37c.47,.41,.85,.91,1.18,1.44Z"/><path class="cls-2" d="M317.94,175.87c-.36,1.1-1.02,2.06-1.88,2.81,.61-.22,1.25-.39,1.94-.43,.83-.05,1.63,.07,2.39,.3-1.06-.63-1.91-1.56-2.45-2.68Z"/><path class="cls-2" d="M324,189.32c.17-.03,.34-.07,.52-.09,.24-.01,.47,.02,.71,.03-.24-.25-.47-.51-.68-.79-.16,.3-.35,.57-.54,.84Z"/><path class="cls-2" d="M395.69,222.05c.5,.4,.95,.85,1.33,1.37,.41-.67,.93-1.26,1.54-1.75-.58,.22-1.19,.38-1.85,.42-.35,.02-.68,0-1.02-.04Z"/><path class="cls-2" d="M384.37,207.77c-.31,.7-.72,1.35-1.23,1.91,.36-.08,.73-.16,1.12-.18,.7-.04,1.36,.06,2.01,.21-.76-.51-1.4-1.16-1.89-1.94Z"/><path class="cls-2" d="M365.04,198.75c.33-.07,.65-.14,1-.16,.57-.03,1.12,.02,1.66,.11-.63-.49-1.15-1.09-1.56-1.79-.27,.67-.64,1.29-1.1,1.84Z"/><path class="cls-2" d="M370.71,200.01c.59,.43,1.11,.94,1.54,1.54,.47-.78,1.09-1.46,1.82-2-.65,.28-1.35,.47-2.09,.51-.43,.03-.85,0-1.27-.05Z"/><path class="cls-2" d="M402.6,233.77c.37,.35,.69,.73,.98,1.15,.29-.5,.66-.95,1.07-1.36-.45,.12-.92,.2-1.4,.23-.22,.01-.44-.02-.66-.03Z"/><path class="cls-2" d="M353.91,199.17c.15-.02,.3-.06,.46-.07,.28-.01,.55,.02,.83,.04-.27-.27-.52-.56-.74-.87-.16,.32-.35,.62-.56,.91Z"/><path class="cls-2" d="M359.84,201.1c.24,.22,.46,.46,.67,.72,.19-.28,.37-.57,.6-.82-.25,.04-.5,.11-.77,.12-.17,.01-.33-.01-.5-.02Z"/><path class="cls-2" d="M390.05,220.57c.24-.04,.47-.1,.71-.11,.45-.03,.9,0,1.33,.05-.46-.4-.84-.88-1.17-1.4-.23,.53-.52,1.01-.87,1.45Z"/><path class="cls-2" d="M372.26,209.89c.1-.01,.2-.04,.3-.05,.26-.01,.51,.02,.77,.03-.22-.21-.43-.42-.62-.67-.13,.24-.29,.46-.45,.68Z"/><path class="cls-2" d="M384.94,223.2c.11,.12,.23,.23,.34,.36,.1-.15,.21-.3,.32-.44-.18,.02-.35,.07-.53,.09-.04,0-.08,0-.13,0Z"/><path class="cls-2" d="M379.12,220.86c.14,0,.28,.02,.42,.02-.08-.09-.18-.18-.26-.28-.05,.09-.1,.17-.16,.26Z"/><path class="cls-2" d="M226.72,207c-.32-.32-.6-.66-.85-1.04-.23,.42-.48,.82-.79,1.17,.33-.06,.65-.14,1-.16,.22-.01,.43,.02,.64,.03Z"/><path class="cls-2" d="M397.02,231.88c.09-.01,.18-.04,.27-.04,.28-.02,.55,.02,.83,.03-.22-.22-.44-.43-.63-.68-.14,.25-.3,.47-.46,.69Z"/><path class="cls-2" d="M220.26,210.64c.25-.45,.54-.89,.89-1.27-.26,.04-.5,.11-.77,.12-.46,.03-.91,0-1.35-.05,.45,.35,.88,.74,1.23,1.2Z"/><path class="cls-2" d="M215.85,208.05c-.71-.55-1.3-1.24-1.73-2.04-.43,1-1.1,1.88-1.96,2.54,.71-.3,1.47-.52,2.28-.57,.48-.03,.95,0,1.41,.06Z"/><path class="cls-2" d="M196.98,213.87c.69-2.62,2.97-4.63,5.82-4.8,2.43-.14,4.6,1.09,5.81,3.01,.48-1.1,1.22-2.05,2.18-2.76-.65,.28-1.35,.47-2.09,.51-2.89,.18-5.43-1.63-6.34-4.24-.6,2.44-2.7,4.33-5.35,4.48-2.33,.14-4.41-1.1-5.48-3.01,.16,1.08,.33,2.15,.51,3.22,2.21,.19,4.09,1.59,4.94,3.58Z"/><path class="cls-2" d="M306.62,177.45c-.13,.48-.24,.96-.36,1.45,.71-.05,1.32,.03,1.91,.15-.61-.44-1.13-.97-1.55-1.6Z"/><path class="cls-2" d="M237.12,197.81c.32-.54,.72-1.02,1.16-1.46-.36,.09-.73,.16-1.12,.18-.53,.03-1.05-.02-1.56-.12,.57,.39,1.09,.85,1.51,1.4Z"/><path class="cls-2" d="M237.27,206.15c.16-.02,.3-.06,.46-.07,.08-.12-.04-.23-.14-.36-.09,.15-.21,.29-.32,.43Z"/><path class="cls-2" d="M232.32,209.02c-.09,0-.17,.04-.26,.04-.19,.01-.36-.02-.54-.02,.15,.15,.3,.31,.44,.48,.11-.17,.24-.33,.36-.5Z"/><path class="cls-2" d="M377.97,211.84c.3,.29,.59,.59,.83,.93,.24-.39,.52-.75,.83-1.09-.36,.08-.72,.15-1.1,.17-.19,.01-.38-.02-.57-.02Z"/><path class="cls-2" d="M421.59,335.65c-.09-.09-.18-.19-.27-.29-.06,.1-.14,.17-.2,.27,.16,0,.31,.02,.46,.02Z"/><path class="cls-2" d="M190.39,409.82c-.32-.03-.63-.1-.94-.18-.56,.1-1.12,.21-1.68,.31,.71,.24,1.37,.61,1.93,1.09,.23-.41,.45-.82,.68-1.22Z"/><path class="cls-2" d="M234.38,447.2c.03-.95,.27-1.85,.69-2.66-.43,.3-.84,.61-1.24,.93,.28,.53,.45,1.12,.55,1.73Z"/><path class="cls-2" d="M386.46,438.1c.08-2.13,1.32-3.99,3.16-4.89-.33,0-.67,0-1.01,0-.62,0-1.24,0-1.86,0-.27,.05-.53,.12-.8,.13-.56,.03-1.1-.03-1.63-.14-.67,0-1.34,0-2.01,0,2.16,.7,3.8,2.57,4.15,4.91Z"/><path class="cls-2" d="M427.22,360.8c.64,.51,1.18,1.13,1.61,1.84,.56-1.1,1.43-2.02,2.49-2.65-.86,.49-1.84,.8-2.89,.86-.41,.02-.82,0-1.21-.05Z"/><path class="cls-2" d="M348.65,202.07c.21-.03,.13,0,.04,0-.01,0-.03,0-.04,0Z"/><path class="cls-2" d="M193.57,246.32c-.47,.05-.68,.02-.9,.01,.18,.17,.34,.35,.5,.54,.12-.19,.26-.37,.4-.55Z"/><path class="cls-2" d="M431.79,288.7c-.63-.45-1.17-1.02-1.6-1.67-.26,.59-.59,1.13-.99,1.63,.25-.04,.49-.1,.75-.12,.63-.04,1.24,.04,1.84,.16Z"/><path class="cls-2" d="M197.33,234.33c.35,.3,.67,.62,.95,.98,.2-.36,.44-.7,.71-1.02-.18,.03-.35,.07-.53,.09-.38,.02-.76,0-1.13-.04Z"/><path class="cls-2" d="M429.12,347.68c-.47-.35-.91-.74-1.28-1.2-.25,.44-.53,.84-.85,1.22,.22-.03,.42-.09,.65-.1,.51-.03,1,.01,1.48,.09Z"/><path class="cls-2" d="M433.99,325.52c-.58,.19-1.17,.34-1.8,.38-.26,.02-.51-.02-.76-.03,.46,.44,.85,.95,1.18,1.5,.35-.7,.82-1.32,1.39-1.84Z"/><path class="cls-2" d="M423.82,359.33c-.41-.34-.79-.72-1.11-1.15-.22,.42-.47,.81-.76,1.18,.18-.03,.35-.08,.54-.09,.46-.03,.9,0,1.34,.05Z"/><path class="cls-2" d="M286.49,437.67c.29-.1,.22-.16,.17-.23-.05,.08-.11,.15-.17,.23Z"/><path class="cls-2" d="M341.28,190.4c.39,.34,.74,.7,1.05,1.11,.28-.47,.63-.88,1.01-1.27-.39,.09-.78,.17-1.2,.19-.29,.01-.58-.01-.87-.04Z"/><path class="cls-2" d="M430.73,311.96c.21-.03,.4-.09,.61-.1,.55-.03,1.08,.01,1.59,.1-.51-.4-.96-.86-1.34-1.4-.24,.5-.52,.97-.87,1.4Z"/><path class="cls-2" d="M430.79,302.57c-.21,.01-.41-.02-.62-.03,.39,.39,.73,.82,1.03,1.29,.31-.58,.7-1.09,1.16-1.55-.5,.14-1.02,.25-1.57,.29Z"/><path class="cls-2" d="M352.24,189.43c.71,.49,1.32,1.12,1.8,1.84,.49-.92,1.19-1.71,2.04-2.31-.7,.32-1.47,.54-2.29,.59-.53,.03-1.05-.02-1.55-.12Z"/><path class="cls-2" d="M335.37,188.8c.27-.05,.53-.12,.81-.13,.38-.02,.74,.01,1.1,.04-.41-.37-.75-.81-1.06-1.28-.23,.49-.51,.94-.85,1.36Z"/><path class="cls-2" d="M334.42,451.12c.4-1.18,1.13-2.2,2.11-2.95-.72,.31-1.5,.53-2.33,.58-.68,.04-1.34-.05-1.97-.19,.94,.64,1.71,1.51,2.2,2.56Z"/><path class="cls-2" d="M346.53,188.38c.43-.11,.87-.19,1.32-.22,.62-.04,1.22,.04,1.81,.16-.73-.53-1.35-1.2-1.81-1.98-.32,.76-.76,1.45-1.33,2.04Z"/><path class="cls-2" d="M430.56,390.54c-.22,1.4-.91,2.64-1.9,3.58,1.43-.15,2.86-.3,4.28-.48-1.12-.71-1.97-1.8-2.38-3.1Z"/><path class="cls-2" d="M418.48,371.59c-.34-.28-.64-.58-.92-.92-.2,.34-.44,.65-.69,.95,.17-.02,.32-.07,.5-.08,.38-.02,.75,0,1.12,.04Z"/><path class="cls-2" d="M412.41,382.27c-.24,.45-.51,.87-.84,1.26,.22-.04,.43-.09,.65-.11,.48-.03,.96,0,1.41,.06-.45-.36-.87-.75-1.22-1.22Z"/><path class="cls-2" d="M418.91,392.88c-.34,.82-.84,1.55-1.45,2.17,1.11-.07,2.22-.15,3.32-.23-.76-.51-1.39-1.16-1.87-1.94Z"/><path class="cls-2" d="M422.91,350.02c-.32,.06-.64,.13-.97,.16-.04,.23,.16,.47,.34,.74,.18-.32,.4-.61,.63-.89Z"/><path class="cls-2" d="M412.49,374.14c-.27,.04-.54,.12-.82,.13-.02,.19,.14,.39,.29,.61,.15-.26,.34-.5,.53-.74Z"/><path class="cls-2" d="M340.05,436.94c-.23,.04-.46,.1-.7,.12-.18,.01-.35-.02-.53-.02,.23,.25,.45,.49,.64,.77,.17-.31,.37-.59,.58-.87Z"/><path class="cls-2" d="M417.43,361.96c-.21,.03-.42,.09-.63,.1,.03,.13,.16,.25,.27,.39,.11-.17,.23-.33,.36-.49Z"/><path class="cls-2" d="M304.61,439.28c-.33,.04-.43,.03-.52,.03,.09,.1,.2,.19,.28,.3,.07-.12,.16-.22,.24-.33Z"/><path class="cls-2" d="M187.57,258.67c.14,.14,.28,.29,.42,.45,.09-.15,.21-.29,.32-.43-.31,.03-.52,0-.73-.01Z"/><path class="cls-2" d="M407.34,385.95c-.27,.05-.53,.12-.82,.13-.09,0-.18-.02-.27-.02,.19,.21,.38,.41,.54,.63,.16-.27,.35-.51,.55-.75Z"/><path class="cls-2" d="M333.72,434.86c-.11-.11-.22-.22-.32-.34-.08,.12-.17,.24-.26,.36,.34-.04,.46-.02,.58-.02Z"/><path class="cls-2" d="M207.97,219.83c.43-.11,.86-.19,1.32-.21,.26-.01,.51,.02,.76,.03-.41-.41-.77-.87-1.07-1.38-.27,.57-.6,1.1-1.01,1.56Z"/><path class="cls-2" d="M312.46,449.95c-.51,.15-1.03,.26-1.59,.29-.52,.03-1.03,0-1.52-.08,.67,.54,1.24,1.21,1.66,1.97,.33-.83,.83-1.56,1.45-2.18Z"/><path class="cls-2" d="M324.34,449.13c-.58,.19-1.17,.34-1.81,.38-.57,.03-1.13-.02-1.67-.12,.75,.57,1.39,1.3,1.83,2.15,.35-.93,.93-1.74,1.65-2.4Z"/><path class="cls-2" d="M317.99,448.14c-.54-.39-1.04-.84-1.45-1.37-.33,.56-.76,1.05-1.23,1.5,.42-.11,.84-.18,1.29-.21,.47-.03,.94,0,1.39,.07Z"/><path class="cls-2" d="M328.12,437.78c-.15,.01-.28,.06-.43,.07-.12,0-.23-.01-.34-.01,.14,.15,.28,.3,.41,.46,.11-.18,.24-.35,.37-.52Z"/><path class="cls-2" d="M329.95,447.58c-.66-.44-1.26-.97-1.74-1.61-.38,.67-.88,1.25-1.45,1.75,.48-.15,.98-.26,1.5-.29,.58-.04,1.14,.03,1.69,.15Z"/><path class="cls-2" d="M316.31,438.57c-.1,.01-.18,.04-.28,.05-.15,.09-.04,.18,.04,.29,.07-.12,.17-.22,.25-.34Z"/><path class="cls-2" d="M406.49,395.59c.6-.02,1.2-.05,1.81-.07-.38-.31-.73-.66-1.03-1.04-.22,.4-.48,.77-.77,1.12Z"/><path class="cls-2" d="M220.38,218.78c.19-.03,.36-.08,.55-.09,0-.12-.11-.25-.21-.38-.1,.17-.23,.32-.35,.47Z"/><path class="cls-2" d="M198.45,243.5c.19-.03,.36-.08,.55-.09-.08-.11-.17-.22-.25-.33-.09,.14-.2,.28-.3,.42Z"/><path class="cls-2" d="M374.63,437.06c.61-1.83,2.08-3.28,3.95-3.87h-.88c-.98,.68-2.13,1.12-3.4,1.19-.86,.05-1.68-.07-2.44-.32,1.22,.67,2.2,1.72,2.77,3Z"/><path class="cls-2" d="M364.43,434.97c-.57,.19-1.15,.33-1.78,.37-.46,.03-.9,0-1.34-.06,.63,.52,1.16,1.15,1.56,1.87,.36-.84,.89-1.58,1.56-2.19Z"/><path class="cls-2" d="M370.73,433.57c-.2-.11-.38-.23-.57-.35-.99,0-1.98,.01-2.96,.03-.11,.11-.23,.21-.34,.32,.49-.15,1-.26,1.53-.3,.82-.05,1.61,.07,2.34,.31Z"/><path class="cls-2" d="M203.44,231.74c.24-.04,.47-.1,.71-.12,.06-.16-.11-.33-.25-.52-.14,.23-.3,.43-.47,.64Z"/><path class="cls-2" d="M352.09,436.05c-.36,.08-.71,.15-1.09,.17-.28,.02-.55-.02-.82-.03,.38,.38,.72,.8,1.01,1.25,.25-.5,.54-.97,.9-1.39Z"/><path class="cls-2" d="M357.92,433.82c-.43-.34-.82-.71-1.16-1.14-.26,.44-.56,.85-.91,1.23,.28-.06,.56-.12,.85-.14,.41-.02,.82,0,1.21,.05Z"/><path class="cls-2" d="M197.41,398.52c-.27,.05-.53,.12-.81,.13-.12,0-.23-.01-.36-.01l.43,1.01c.21-.4,.46-.78,.74-1.13Z"/><path class="cls-2" d="M201.77,221.77c.63,.41,1.2,.91,1.67,1.5,.31-.55,.7-1.04,1.14-1.49-.33,.07-.66,.14-1,.16-.62,.04-1.22-.04-1.8-.17Z"/><path class="cls-2" d="M345.69,434.3c-.22-.2-.42-.43-.61-.66-.16,.25-.33,.48-.52,.71,.16-.02,.31-.06,.47-.07,.23-.01,.44,.02,.66,.03Z"/><path class="cls-2" d="M293.15,448.08c-.18,.31-.39,.59-.62,.86,.22,.18,.44,.36,.66,.54,.55-.04,1.02-.01,1.47,.06-.57-.42-1.09-.9-1.51-1.46Z"/><path class="cls-2" d="M420.78,227.26c-.45,2.88-2.85,5.17-5.89,5.35-2.41,.14-4.57-1.09-5.76-3.01-.35,.83-.86,1.58-1.49,2.21,.43-.12,.88-.19,1.34-.22,2.77-.17,5.24,1.37,6.4,3.71,.86-2.12,2.86-3.68,5.29-3.83,1.42-.08,2.73,.34,3.82,1.09,.87-.48,1.75-.96,2.63-1.43-.2,.03-.4,.09-.61,.1-2.65,.16-4.98-1.54-5.73-3.97Z"/><path class="cls-2" d="M292.99,439.97c-.09,0-.18,.04-.28,.04-.13,0-.25-.02-.38-.01,.12,.14,.25,.26,.36,.41,.09-.15,.2-.29,.3-.43Z"/><path class="cls-2" d="M434.99,335.65c-.81-.49-1.49-1.17-2.01-1.96-.3,.67-.67,1.31-1.16,1.85,.31-.06,.61-.13,.93-.15,.78-.04,1.53,.07,2.24,.27Z"/><path class="cls-2" d="M356.47,424.52c-.11,.01-.21,.04-.31,.05,.19,.11,.26,.03,.31-.05Z"/><path class="cls-2" d="M426.22,323.94c.25-.01,.48,.02,.72,.03-.17-.16-.33-.34-.48-.52-.11,.18-.25,.34-.37,.51,.04,0,.08-.01,.13-.02Z"/><path class="cls-2" d="M425.45,300.54c-.14-.13-.26-.27-.39-.42-.09,.14-.2,.26-.29,.4,.26-.02,.47,.01,.68,.02Z"/><path class="cls-2" d="M428.04,337.69c-.32,.07-.65,.14-.99,.16-.12,0-.24-.02-.36-.01,.24,.25,.48,.49,.68,.77,.2-.32,.42-.63,.67-.92Z"/><path class="cls-2" d="M214.69,221.61c.16,.15,.3,.32,.45,.48,.11-.17,.24-.33,.36-.5-.44,.05-.62,.02-.81,.01Z"/><path class="cls-2" d="M425.95,314.97c.11-.16,.22-.31,.33-.46-.21,.03-.41,.09-.63,.1,.07,.12,.19,.23,.29,.36Z"/><path class="cls-2" d="M342.65,199.64c.15-.01,.26,0,.36,0-.07-.08-.15-.15-.21-.23-.04,.08-.1,.15-.15,.22Z"/><path class="cls-2" d="M297.54,450.79c.73,.55,1.33,1.24,1.77,2.05,.33-.84,.84-1.59,1.47-2.22-.5,.15-1.02,.26-1.57,.29-.57,.03-1.13-.02-1.67-.12Z"/><path class="cls-2" d="M304.84,447.47c-.33,.55-.75,1.03-1.21,1.47,.42-.11,.86-.19,1.31-.21,.43-.03,.85,0,1.26,.05-.5-.38-.97-.81-1.36-1.31Z"/><path class="cls-2" d="M403.62,242.99c.47-.05,.74-.01,1.02,0-.21-.22-.43-.43-.61-.67-.12,.23-.26,.45-.41,.67Z"/><path class="cls-2" d="M424.97,291.08c-.24,.04-.47,.1-.72,.12,.01,.15,.17,.29,.3,.45,.13-.19,.27-.39,.42-.57Z"/><path class="cls-2" d="M395.45,395.92c.1,0,.2,0,.3,0-.21-.12-.26-.06-.3,0Z"/><path class="cls-2" d="M418.08,280.37c-.2-.09-.12-.02-.05,.07,.01-.02,.03-.04,.05-.07Z"/><path class="cls-2" d="M93.17,318.72c4.77,79.75,53.03,146.73,120.29,179.29,.5,.51,.84,.83,.94,.92l.3-.32c31.42,14.96,66.93,22.44,104.06,20.21,89.66-5.37,163.21-65.72,189.78-146.26,8.23-25.04,11.93-51.74,10.28-79.33-7.02-117.34-108.2-207.09-225.54-200.07-103.69,6.21-185.82,85.9-198.72,185.3-1.7,13.12-2.21,26.57-1.39,40.25Zm65.64-135.67c-.05-.81,.57-1.5,1.37-1.54,.1,.28,.05,.54,0,.81-.12,.67-.25,1.35-.37,2.03-.33-.11-.6-.35-.78-.65-.12-.19-.2-.41-.22-.64Zm29.92-33.08c.85-2.74,1.74-5.46,2.72-8.14-.47,2.9-.85,5.81-1.19,8.71-.14,1.17-.28,2.34-.39,3.5-.23,2.41-.41,4.81-.56,7.22-.12,2.01-.21,4.03-.27,6.04,1.04,.15,1.88,1.02,1.94,2.11,.07,1.22-.83,2.26-2.04,2.38-.04,5.54,.12,11.06,.5,16.55,.14,.05,.27,.01,.4,0,2.5-.15,4.65,1.76,4.8,4.26,.15,2.5-1.76,4.65-4.26,4.8,.08,1.82,.3,3.64,.54,5.46,.58-2.48,2.7-4.4,5.37-4.56,2.64-.16,4.96,1.46,5.84,3.81,.6-2.7,2.9-4.79,5.79-4.97,2.47-.15,4.67,1.15,5.84,3.15,.94-2.33,3.13-4.04,5.8-4.2,2.41-.15,4.58,1.02,5.88,2.86,1.08-2.13,3.21-3.66,5.77-3.81,.62-.04,1.22,.03,1.81,.15-.91-.65-1.65-1.53-2.12-2.57-.77,2.3-2.87,4.02-5.44,4.17-3.19,.19-5.93-2.11-6.39-5.21-.11,2.88-2.36,5.28-5.3,5.45-3.13,.19-5.81-2.2-6-5.32-.19-3.13,2.19-5.81,5.32-6,2.94-.17,5.46,1.93,5.91,4.78,.09-3.13,2.54-5.74,5.72-5.93,2.57-.16,4.85,1.3,5.89,3.49,.78-2.48,3-4.35,5.75-4.52,2.51-.15,4.75,1.17,5.93,3.21,.78-1.88,2.37-3.34,4.38-3.88,.47-.86,.97-1.72,1.45-2.57-.18-.31-.32-.64-.44-.99-.58,2.52-2.74,4.48-5.46,4.64-3.23,.19-6-2.22-6.31-5.42,.07,3.07-2.28,5.67-5.37,5.85-3.16,.19-5.88-2.22-6.06-5.38-.19-3.16,2.22-5.88,5.38-6.06,3.09-.19,5.74,2.12,6.03,5.17-.08-3.21,2.38-5.94,5.62-6.13,2.72-.16,5.09,1.53,5.97,3.96,.58-2.65,2.84-4.71,5.68-4.88,.13,0,.24,.01,.37,.01,.42-.68,.84-1.36,1.26-2.03-.88-.9-1.47-2.1-1.55-3.46-.18-3,2.11-5.58,5.11-5.76,.81-.05,1.59,.1,2.3,.38,.6-.86,1.18-1.73,1.79-2.58-1.77-.55-3.1-2.14-3.22-4.1-.15-2.54,1.78-4.72,4.32-4.87,1.69-.1,3.21,.73,4.09,2.05,1.64-2.09,3.33-4.13,5.08-6.14,1.52-1.76,3.1-3.47,4.7-5.16,.33-.93,1.05-1.67,1.98-2.03,5.09-5.13,10.54-9.87,16.37-14.04,4.56-3.27,9.35-6.18,14.29-8.71,4.21-2.16,8.52-4.05,12.92-5.64-3.14,1.77-6.17,3.7-9.09,5.75-5.28,3.71-10.19,7.85-14.68,12.37,.08,.19,.15,.38,.16,.6,.03,.51-.15,.96-.44,1.33-.06,.07-.13,.13-.2,.2-.32,.29-.72,.5-1.18,.53-.28,.01-.54-.03-.78-.12-2.15,2.3-4.19,4.68-6.15,7.13,.34-.19,.71-.31,1.1-.38-.99,1.1-1.95,2.23-2.91,3.37,0-.29,.05-.57,.12-.84-1.59,2.08-3.1,4.2-4.56,6.37-1.51,1.98-2.95,4.01-4.37,6.06-1.3,1.89-2.57,3.82-3.8,5.77-.69,1.1-1.38,2.21-2.04,3.32-1.86,3.1-3.65,6.26-5.36,9.47-.19,.36-.38,.72-.57,1.08-1.95,3.7-3.8,7.46-5.58,11.27-1.79,3.85-3.49,7.67-5.11,11.52-.13,.31-.25,.62-.38,.93-1.2,2.86-2.36,5.72-3.5,8.6-.31,.79-.62,1.59-.93,2.38-.2,.52-.41,1.05-.61,1.57-1.35,3.48-2.66,6.96-3.95,10.43-.25,.67-.5,1.35-.75,2.02-1.27,3.43-2.52,6.85-3.75,10.24-.32,.88-.56,1.53-.8,2.18-1.23,3.37-2.46,6.73-3.7,10.06-.27,.73-.54,1.45-.81,2.18-1.28,3.43-2.58,6.83-3.9,10.18-.2,.5-.39,1-.59,1.5-.07,.18-.15,.37-.22,.55-.18,.45-.36,.89-.54,1.33-1.18,2.94-2.39,5.85-3.62,8.69-.06,.14-.12,.28-.18,.42-.23,.53-.47,1.05-.7,1.59-.27,.62-.54,1.24-.82,1.85-1.22,2.71-2.47,5.35-3.76,7.94-.37,.74-.74,1.49-1.11,2.22-1.6,3.13-3.27,6.16-5,9.07-.51,.86-1.04,1.71-1.57,2.55-1.9,3.04-3.89,5.94-5.99,8.68-.52,.68-1.05,1.34-1.58,1.99-1.34,1.66-2.73,3.26-4.17,4.79-1.11,1.18-2.25,2.33-3.42,3.42-1.51,1.41-3.07,2.76-4.69,4.02-.67,.52-1.35,1.03-2.04,1.53-.11,.08-.22,.16-.34,.24-.05-.16-.1-.31-.15-.47-.3-.91-.6-1.82-.89-2.74-.18-.57-.35-1.13-.52-1.69-.64-2.09-1.26-4.17-1.86-6.27-.05-.17-.1-.35-.15-.53-.07-.23-.13-.47-.2-.71-1.06-3.78-2.05-7.55-2.95-11.33-.16-.64-.3-1.28-.45-1.93-.82-3.5-1.57-7-2.25-10.49-.08-.42-.16-.83-.24-1.25-.1-.52-.2-1.03-.3-1.55-.44-2.38-.86-4.75-1.23-7.12,.01-.31,.07-.39,.13-.47-.93-4.58-1.53-9.16-2.02-13.71,.37-.09,.75-.16,1.15-.19,.18-.01,.36,.02,.54,.02-.32-.31-.6-.65-.86-1.02-.24,.41-.52,.79-.84,1.14-.35-3.28-.66-6.54-.89-9.8,.48,.36,.92,.78,1.28,1.26,.37-.69,.85-1.31,1.41-1.84-.4,.11-.82,.18-1.25,.2-.51,.03-1-.02-1.48-.1-.29-4.14-.48-8.27-.57-12.37-.04-.6-.07-1.17-.1-1.75-.14-2.43-.25-4.86-.33-7.29-.03-.97-.04-1.94-.06-2.9-.07-3.5-.08-7,0-10.49,.1-4.91,.36-9.81,.75-14.69,.17-2.18,.38-4.35,.61-6.52,.09-.78,.15-1.57,.25-2.35,.16-1.34,.34-2.66,.52-4,.26-1.91,.55-3.81,.85-5.7,1.21-7.44,2.79-14.78,4.77-21.98,.6-2.17,1.23-4.33,1.9-6.47Zm98.98-21.46c.07,1.07-.75,1.99-1.82,2.05-1.07,.07-1.99-.75-2.06-1.82-.06-1.08,.76-1.99,1.83-2.06,1.07-.06,1.99,.76,2.06,1.83Zm-11.66,.7c.07,1.07-.75,1.99-1.82,2.05-1.07,.06-1.99-.75-2.06-1.82-.06-1.07,.75-1.99,1.83-2.06,1.07-.06,1.99,.76,2.06,1.83Zm-3.77,11.93c.11,1.82-1.28,3.39-3.1,3.5-1.82,.11-3.39-1.28-3.5-3.1-.11-1.82,1.28-3.39,3.1-3.5,1.82-.11,3.39,1.28,3.5,3.1Zm-8.11-11.22c.06,.95-.66,1.76-1.61,1.82-.95,.06-1.76-.67-1.82-1.61-.06-.95,.67-1.76,1.61-1.82,.95-.06,1.76,.66,1.82,1.61Zm-40.12,14.11c.06,.95-.66,1.76-1.61,1.82-.95,.06-1.76-.67-1.82-1.61-.06-.95,.67-1.76,1.61-1.82,.95-.06,1.76,.67,1.82,1.61Zm-3.75,11.93c.1,1.71-1.2,3.19-2.92,3.29-1.71,.1-3.19-1.21-3.29-2.92-.1-1.72,1.2-3.19,2.92-3.29,1.72-.1,3.19,1.21,3.29,2.92Zm-8.69-11.18c.03,.52-.36,.96-.88,.99-.52,.03-.96-.36-.99-.88-.03-.52,.36-.96,.88-1,.52-.03,.96,.36,1,.89Zm-3.58,11.92c.08,1.38-.97,2.56-2.34,2.64-1.37,.08-2.56-.96-2.64-2.34-.08-1.37,.97-2.56,2.34-2.64,1.38-.09,2.56,.96,2.64,2.34Zm-4.52,11.98c.1,1.72-1.2,3.18-2.92,3.29-1.72,.1-3.19-1.21-3.29-2.92-.1-1.72,1.2-3.19,2.92-3.29,1.71-.1,3.19,1.21,3.29,2.92Zm-7.92-11.23c.06,.95-.66,1.76-1.61,1.82-.95,.06-1.76-.67-1.82-1.61-.06-.95,.67-1.76,1.61-1.82,.94-.06,1.76,.67,1.82,1.61Zm-.57,19.16c2.36-.14,4.38,1.66,4.52,4.01,.14,2.36-1.66,4.38-4.01,4.52-2.36,.14-4.38-1.65-4.52-4.01-.14-2.36,1.66-4.38,4.01-4.52Zm6.48,10.41c2.86-.17,5.31,2.01,5.48,4.87,.17,2.85-2.01,5.31-4.86,5.48-2.86,.17-5.31-2.01-5.48-4.87-.17-2.86,2.01-5.31,4.87-5.48Zm.56-6.55c-.16-2.7,1.89-5.02,4.59-5.18,2.7-.16,5.02,1.89,5.18,4.59,.16,2.7-1.9,5.02-4.59,5.18-2.7,.16-5.02-1.89-5.18-4.59Zm6.23-12.08c-.13-2.09,1.47-3.88,3.56-4.01,2.09-.13,3.89,1.47,4.01,3.56,.12,2.09-1.47,3.89-3.56,4.01-2.09,.13-3.89-1.47-4.01-3.56Zm9.99,5.72c2.97-.18,5.51,2.08,5.69,5.05,.18,2.96-2.08,5.51-5.05,5.68-2.97,.18-5.51-2.08-5.69-5.05s2.08-5.51,5.05-5.69Zm1.09-6.38c-.14-2.41,1.69-4.48,4.1-4.63,2.41-.15,4.48,1.69,4.63,4.1,.14,2.41-1.69,4.48-4.1,4.63-2.41,.14-4.48-1.69-4.63-4.1Zm5.81-12.06c-.12-2.04,1.43-3.78,3.47-3.91,2.04-.12,3.79,1.43,3.91,3.47,.12,2.04-1.43,3.78-3.47,3.91-2.04,.12-3.79-1.43-3.91-3.47Zm6.56-12.1c-.07-1.25,.88-2.33,2.13-2.4,1.25-.07,2.33,.88,2.4,2.13,.07,1.25-.88,2.33-2.13,2.4-1.25,.07-2.33-.88-2.4-2.13Zm3.37,18.37c2.66-.16,4.95,1.87,5.11,4.53,.16,2.66-1.87,4.95-4.53,5.11-2.66,.16-4.95-1.87-5.1-4.53-.16-2.66,1.87-4.95,4.53-5.1Zm1.32-6.95c-.14-2.27,1.59-4.22,3.86-4.35,2.27-.14,4.22,1.59,4.35,3.86,.14,2.27-1.59,4.22-3.86,4.35-2.27,.13-4.22-1.59-4.35-3.86Zm1.64-23.51c-.04-.59,.41-1.1,1-1.13,.59-.03,1.1,.41,1.13,1,.04,.59-.41,1.09-1,1.13-.59,.04-1.1-.41-1.13-1Zm4.88,11.42c-.09-1.5,1.05-2.79,2.55-2.88,1.5-.09,2.79,1.05,2.88,2.55,.09,1.5-1.05,2.79-2.55,2.88-1.5,.09-2.79-1.05-2.88-2.55Zm3.8,17.99c2.86-.17,5.31,2.01,5.48,4.87,.17,2.86-2.01,5.31-4.86,5.48-2.86,.17-5.31-2.01-5.48-4.87-.17-2.86,2.01-5.31,4.86-5.48Zm1.08-6.57c-.15-2.41,1.69-4.48,4.1-4.63,2.41-.14,4.48,1.69,4.63,4.1,.14,2.41-1.69,4.48-4.11,4.63-2.41,.14-4.48-1.69-4.63-4.1Zm1.51-23.5c-.05-.8,.56-1.5,1.37-1.54,.8-.05,1.49,.57,1.54,1.37,.05,.8-.57,1.49-1.37,1.54-.8,.05-1.49-.56-1.54-1.37Zm4.88,11.41c-.1-1.72,1.2-3.19,2.92-3.29,1.71-.1,3.19,1.2,3.29,2.92,.1,1.71-1.2,3.19-2.92,3.29-1.71,.1-3.19-1.2-3.29-2.92Zm-26.2-10.14c.02,.3-.21,.57-.52,.58-.3,.02-.57-.21-.58-.52,0-.15,.04-.29,.13-.39,.09-.11,.23-.18,.38-.19,.32,0,.57,.22,.58,.52Zm232.45,68.02c.02,.37-.26,.7-.64,.72-.38,.02-.7-.26-.72-.64-.02-.38,.26-.7,.64-.72,.37-.02,.7,.26,.72,.64Zm-4.1,11.95c.06,.94-.67,1.76-1.61,1.82-.95,.06-1.76-.67-1.82-1.61-.06-.95,.66-1.76,1.61-1.82,.95-.06,1.76,.67,1.82,1.62Zm-5.98-11.35c.07,1.25-.88,2.33-2.13,2.4-1.25,.07-2.32-.88-2.4-2.13-.08-1.25,.88-2.33,2.13-2.4,1.25-.07,2.33,.88,2.4,2.13Zm-120.66-51.3c-.14-2.27,1.59-4.22,3.86-4.35,2.27-.14,4.22,1.59,4.35,3.86,.14,2.27-1.59,4.22-3.86,4.35-2.27,.13-4.22-1.6-4.35-3.86Zm4.41,11.44c.18,3-2.11,5.58-5.11,5.76-3,.18-5.58-2.11-5.76-5.11-.18-3,2.11-5.58,5.11-5.76,3-.18,5.58,2.11,5.76,5.11Zm100.85,15.91c.8-.05,1.49,.56,1.54,1.37,.05,.8-.56,1.49-1.37,1.54-.8,.05-1.49-.57-1.54-1.37-.05-.8,.57-1.49,1.37-1.54Zm-2.46,13.31c.09,1.43-1,2.65-2.43,2.74-1.43,.09-2.66-1-2.74-2.43-.09-1.43,1-2.66,2.43-2.74,1.43-.09,2.66,1,2.74,2.43Zm-21-14.15c2.04-.12,3.79,1.43,3.91,3.47,.12,2.04-1.43,3.78-3.47,3.91-2.04,.12-3.79-1.43-3.91-3.46-.12-2.04,1.43-3.79,3.47-3.91Zm-6.15-5.04c-1.43,.09-2.66-1-2.74-2.43-.09-1.43,1-2.66,2.43-2.74,1.43-.09,2.66,1,2.74,2.43,.09,1.43-1,2.65-2.43,2.74Zm3.78-14.53c-.04-.66,.46-1.23,1.13-1.27,.66-.04,1.23,.47,1.27,1.13,.04,.66-.46,1.23-1.12,1.27-.66,.04-1.23-.46-1.27-1.12Zm8.9,30.88c2.04-.12,3.79,1.43,3.91,3.47,.12,2.04-1.43,3.78-3.47,3.91-2.04,.12-3.78-1.43-3.91-3.47-.12-2.04,1.43-3.78,3.47-3.91Zm-2.63-19.55c-.05-.8,.56-1.49,1.37-1.54,.8-.05,1.49,.56,1.54,1.37,.05,.8-.56,1.5-1.37,1.54-.8,.05-1.49-.57-1.54-1.37Zm5.27,11.39c-.09-1.5,1.05-2.79,2.55-2.88,1.5-.09,2.79,1.06,2.88,2.56,.09,1.5-1.05,2.79-2.55,2.88-1.5,.09-2.79-1.05-2.88-2.56Zm-19.74-22.23c.07,1.25-.88,2.33-2.13,2.4-1.25,.07-2.33-.88-2.4-2.13-.07-1.25,.88-2.33,2.13-2.4,1.25-.07,2.32,.88,2.4,2.13Zm-7.61,8.65c1.93-.12,3.59,1.35,3.7,3.29,.11,1.93-1.36,3.59-3.29,3.7-1.93,.12-3.59-1.36-3.7-3.29-.12-1.93,1.36-3.59,3.29-3.7Zm-6.14-4.72c-1.71,.1-3.19-1.2-3.29-2.92-.1-1.71,1.2-3.19,2.92-3.29,1.72-.1,3.19,1.2,3.29,2.92,.1,1.72-1.2,3.19-2.92,3.29Zm4.27-15.07c-.02-.38,.26-.7,.64-.72s.7,.26,.72,.64c.02,.37-.26,.7-.64,.72-.38,.02-.7-.26-.72-.64Zm-9.27,.55c.06,.95-.67,1.76-1.61,1.82-.95,.06-1.76-.67-1.82-1.61-.06-.95,.66-1.76,1.61-1.82,.95-.06,1.76,.66,1.82,1.61Zm-7.31-11.27c.03,.52-.36,.96-.88,.99-.52,.03-.96-.36-1-.88-.03-.52,.36-.97,.88-1,.52-.03,.96,.36,1,.89Zm-3.58,11.92c.08,1.38-.97,2.56-2.34,2.64-1.38,.08-2.56-.96-2.64-2.34-.08-1.38,.97-2.56,2.34-2.64,1.37-.08,2.56,.97,2.64,2.34Zm-7.31-11.27c.06,.95-.67,1.76-1.61,1.82-.95,.06-1.76-.67-1.82-1.61-.06-.95,.66-1.76,1.61-1.82,.95-.06,1.76,.67,1.82,1.62Zm-3.65,11.92c.11,1.77-1.24,3.29-3.01,3.39-1.77,.1-3.29-1.24-3.39-3.01-.11-1.77,1.24-3.29,3.01-3.39,1.77-.11,3.29,1.24,3.39,3.01Zm-7.47-11.26c.07,1.25-.88,2.32-2.13,2.4-1.25,.07-2.33-.88-2.4-2.13-.07-1.25,.88-2.32,2.13-2.4,1.25-.07,2.33,.88,2.4,2.13Zm-11.21,.67c.09,1.5-1.05,2.79-2.55,2.88-1.5,.09-2.79-1.05-2.88-2.56-.09-1.5,1.05-2.79,2.55-2.88,1.5-.09,2.79,1.05,2.88,2.56Zm-1.63,18.31c2.86-.17,5.31,2.01,5.48,4.87,.17,2.85-2.01,5.31-4.86,5.48s-5.31-2.01-5.48-4.86,2.01-5.31,4.86-5.48Zm1.75-6.62c-.12-2.04,1.43-3.79,3.47-3.91,2.04-.12,3.79,1.43,3.91,3.47,.12,2.04-1.43,3.78-3.47,3.91-2.04,.12-3.79-1.43-3.91-3.46Zm9.93,6.27c2.66-.16,4.95,1.87,5.11,4.53,.16,2.66-1.87,4.94-4.53,5.1-2.66,.16-4.95-1.87-5.11-4.53-.16-2.66,1.87-4.95,4.53-5.11Zm6.5,10.76c2.96-.18,5.51,2.08,5.69,5.05,.18,2.96-2.08,5.51-5.05,5.69-2.96,.17-5.51-2.08-5.69-5.05-.18-2.97,2.08-5.51,5.05-5.69Zm1.09-6.38c-.14-2.41,1.69-4.48,4.1-4.63,2.41-.14,4.48,1.69,4.63,4.1,.14,2.41-1.69,4.48-4.1,4.63-2.41,.14-4.48-1.69-4.63-4.1Zm10.6,6.17c2.7-.16,5.01,1.89,5.18,4.59,.16,2.7-1.89,5.01-4.59,5.18-2.7,.16-5.01-1.89-5.18-4.59-.16-2.7,1.89-5.02,4.59-5.18Zm1.58-6.9c-.13-2.13,1.49-3.96,3.62-4.08,2.13-.13,3.95,1.49,4.08,3.62,.13,2.12-1.49,3.95-3.62,4.08-2.13,.13-3.95-1.49-4.08-3.62Zm10.12,6.81c2.36-.14,4.38,1.66,4.52,4.01,.14,2.36-1.66,4.38-4.01,4.52-2.36,.14-4.38-1.66-4.52-4.01-.14-2.35,1.65-4.38,4.01-4.52Zm6.47,10.41c2.86-.17,5.31,2.01,5.48,4.86,.17,2.86-2.01,5.31-4.86,5.48-2.86,.17-5.31-2.01-5.48-4.86-.17-2.86,2.01-5.31,4.86-5.48Zm6.52,11.18c2.93-.18,5.45,2.06,5.62,4.99,.17,2.93-2.06,5.44-4.99,5.62-2.93,.18-5.45-2.06-5.62-4.99-.18-2.93,2.06-5.45,4.99-5.63Zm.92-6.43c-.15-2.5,1.76-4.65,4.26-4.8,2.5-.15,4.65,1.76,4.8,4.26,.15,2.5-1.76,4.65-4.26,4.8-2.5,.15-4.65-1.76-4.8-4.26Zm10.78,6.45c2.54-.15,4.72,1.78,4.87,4.32,.15,2.53-1.78,4.71-4.32,4.87-2.54,.15-4.72-1.78-4.87-4.32-.15-2.54,1.78-4.72,4.32-4.87Zm6.49,10.6c2.93-.17,5.45,2.06,5.62,4.99,.18,2.93-2.06,5.45-4.99,5.62-2.93,.17-5.45-2.06-5.62-4.99-.17-2.93,2.06-5.45,4.99-5.62Zm6.54,11.44c2.86-.17,5.31,2.01,5.48,4.87,.17,2.86-2.01,5.31-4.87,5.48-2.86,.17-5.31-2.01-5.48-4.87-.17-2.86,2.01-5.31,4.86-5.48Zm.92-6.56c-.15-2.5,1.76-4.65,4.26-4.8s4.65,1.76,4.8,4.26c.15,2.5-1.75,4.65-4.26,4.8-2.5,.15-4.65-1.75-4.8-4.25Zm10.8,6.77c2.36-.14,4.38,1.66,4.52,4.01s-1.66,4.38-4.01,4.52c-2.36,.14-4.38-1.66-4.52-4.01-.14-2.36,1.66-4.38,4.01-4.52Zm1.9-7.53c-.12-1.93,1.36-3.59,3.28-3.7,1.93-.12,3.59,1.35,3.7,3.29,.12,1.93-1.36,3.59-3.29,3.7-1.93,.12-3.59-1.36-3.7-3.29Zm9.84,8c1.72-.1,3.19,1.21,3.29,2.92,.1,1.72-1.2,3.19-2.92,3.29-1.71,.1-3.19-1.2-3.29-2.92-.1-1.72,1.2-3.19,2.92-3.29Zm-2.41-20.15c-.04-.66,.46-1.23,1.13-1.27,.66-.04,1.23,.46,1.27,1.12,.04,.66-.46,1.23-1.12,1.27s-1.23-.46-1.27-1.12Zm-185.91,59.91c-.21,.59-.43,1.18-.65,1.77-.31,.86-.63,1.71-.94,2.57-1.17,3.18-2.37,6.36-3.59,9.53-.35,.91-.69,1.82-1.05,2.73-1.29,3.18-2.59,6.26-3.93,9.32-.42,.94-.83,1.89-1.26,2.83-1.39,3.06-2.85,6.09-4.39,9.08-.43,.84-.87,1.68-1.32,2.52-1.15,2.16-2.37,4.3-3.62,6.41-.36,.61-.71,1.22-1.08,1.82-.24,.39-.5,.78-.74,1.17-.3,.48-.6,.96-.91,1.44-.59,.92-1.2,1.82-1.81,2.73-.4,.58-.79,1.17-1.19,1.74-1.16,1.64-2.37,3.24-3.62,4.82-.86,1.08-1.74,2.15-2.64,3.19-.3,.35-.6,.68-.91,1.02-.21,.24-.42,.48-.64,.72-.36,.39-.71,.8-1.07,1.18-2.47,2.62-5.12,5.06-7.92,7.3-.34,.27-.67,.55-1.02,.81-.27,.21-.53,.44-.8,.64,.2-.21,.39-.43,.6-.64,.48-.5,.96-1.02,1.43-1.53,2.1-2.28,4.09-4.65,5.97-7.08,.65-.84,1.27-1.68,1.9-2.53,1.68-2.31,3.29-4.67,4.81-7.08,.36-.58,.73-1.15,1.09-1.73,.36-.59,.71-1.19,1.07-1.79,.3-.51,.61-1.02,.91-1.53,.72-1.24,1.42-2.48,2.1-3.74,.15-.27,.3-.54,.45-.8,.75-1.41,1.49-2.84,2.22-4.26,.12-.23,.23-.47,.35-.7,.6-1.18,1.19-2.37,1.77-3.56,.24-.49,.47-.99,.71-1.48,.9-1.89,1.79-3.8,2.63-5.72,.09-.21,.18-.43,.28-.64,.67-1.5,1.27-2.92,1.88-4.33,.15-.35,.31-.7,.46-1.05,.95-2.22,1.87-4.45,2.78-6.69,.5-1.23,.97-2.34,1.41-3.47,.1-.23,.19-.48,.28-.71,.19-.48,.38-.96,.57-1.43,.85-2.11,1.69-4.23,2.52-6.35,.05-.13,.1-.27,.16-.41,.46-1.18,.91-2.37,1.37-3.56,.3-.79,.6-1.57,.9-2.35,.2-.53,.41-1.06,.61-1.59,.55-1.38,1.08-2.78,1.62-4.17,.1-.26,.2-.51,.3-.77,.35-.92,.71-1.83,1.06-2.74,.35-.91,.71-1.82,1.07-2.72,.12-.31,.25-.62,.36-.93,.63-1.63,1.26-3.25,1.91-4.87,.04-.09,.07-.17,.1-.26,.09-.23,.19-.47,.28-.7,.27-.67,.55-1.35,.82-2.02,.68-1.68,1.35-3.37,2.04-5.05,.58-1.41,1.19-2.8,1.78-4.2,.11-.26,.22-.52,.33-.79,.22-.52,.44-1.03,.66-1.55,.83-1.92,1.69-3.82,2.55-5.73,.65-1.42,1.28-2.85,1.95-4.26,.36-.77,.72-1.44,1.06-2.13,.81-1.65,1.62-3.3,2.46-4.94,.17-.32,.32-.66,.49-.97l-.43,1.3-1.29,3.85-.87,2.6-.51,1.54-2.06,6.18-.33,.97-1.06,3.17-.97,2.91-1.87,5.58-.26,.79-.74,2.2-.81,2.44c-.34,1.04-.7,2.07-1.05,3.11-.27,.79-.53,1.58-.8,2.37-.11,.32-.21,.64-.32,.96-.2,.58-.39,1.15-.58,1.73-1.04,3-2.01,5.77-2.98,8.56Zm-15.59,106.76l4.13-2.18,7.36-3.9,1.16-.61,1.72-.91,4.2-2.22,1.1-.58,2.01-1.06,6.32-3.34,4.55-2.41,6.14-3.25,.74-.39,1.56-.84,.91-.49,4.15-2.24,1.54-.83,1.61-.86,7.12-3.83,4.2-2.26,3.92-2.11c.28-.15,.55-.3,.83-.45,1.21-.65,2.43-1.32,3.64-1.97,1.6-.87,3.2-1.73,4.8-2.6,1.42-.77,2.83-1.54,4.24-2.31,2.41-1.31,4.8-2.64,7.2-3.96,.35-.19,.71-.39,1.06-.58,.62-.34,1.25-.68,1.87-1.03,.43-.24,.86-.47,1.29-.71,.93-.51,1.86-1.03,2.79-1.54,.49-.26,.97-.54,1.46-.8,.51-.28,1.02-.56,1.53-.84,2.17-1.19,4.34-2.38,6.5-3.58,1.5-.84,3-1.68,4.51-2.52,1.86-1.04,3.72-2.08,5.58-3.12,.83-.46,1.65-.92,2.48-1.38,.29-.16,.58-.33,.87-.49,.37-.2,.73-.41,1.1-.62,.9-.5,1.8-1.02,2.7-1.52,.19-.1,.38-.21,.57-.32,1.21-.68,2.41-1.35,3.62-2.04,2.43-1.37,4.87-2.74,7.31-4.12,1.08-.62,2.17-1.23,3.25-1.84,1.34-.76,2.64-1.5,3.94-2.24,.19-.11,.38-.21,.56-.32,.27-.15,.55-.31,.82-.47,.68-.39,1.36-.78,2.04-1.17,2.13-1.22,4.26-2.44,6.38-3.66,1.31-.75,2.62-1.5,3.93-2.25,2.32-1.33,4.63-2.66,6.95-3.99,.66-.38,1.33-.76,1.99-1.14,1.83-1.05,3.66-2.11,5.49-3.16,.57-.33,1.14-.66,1.71-.99,1.56-.9,3.13-1.81,4.69-2.71,1.75-1,3.49-2.02,5.24-3.03,.24-.14,.47-.28,.71-.41,2.15-1.25,4.31-2.49,6.46-3.74,.13-.08,.26-.15,.4-.23,1.1-.64,2.19-1.26,3.29-1.9-1,.71-2.01,1.4-3.02,2.1-2.37,1.66-4.53,3.17-6.71,4.66-.51,.35-1.02,.72-1.54,1.07-1.29,.88-2.59,1.74-3.88,2.61-1.7,1.15-3.4,2.29-5.11,3.42-.34,.23-.68,.46-1.02,.69-.65,.43-1.3,.88-1.95,1.31-.51,.33-1.02,.66-1.54,1-.57,.38-1.14,.74-1.72,1.11-.79,.51-1.58,1.02-2.37,1.53-2.71,1.76-5.43,3.52-8.16,5.24-.83,.52-1.67,1.04-2.5,1.56-1.66,1.04-3.15,1.97-4.64,2.89-.2,.12-.39,.25-.59,.37-.58,.36-1.16,.73-1.74,1.08-.36,.22-.71,.44-1.06,.66-1.96,1.22-3.95,2.4-5.93,3.6-1.37,.83-2.73,1.67-4.1,2.49-1.67,1-3.35,2.01-5.02,3-1.12,.67-2.25,1.33-3.37,1.99-1.58,.93-3.16,1.87-4.75,2.8-.42,.25-.83,.49-1.25,.74-.99,.58-2,1.14-2.99,1.72-2.47,1.42-4.93,2.84-7.41,4.24-.08,.04-.16,.09-.24,.14-.76,.43-1.52,.87-2.28,1.3-1.34,.75-2.68,1.5-4.02,2.25-.71,.4-1.42,.79-2.13,1.19-.16,.09-.32,.18-.48,.27-1.74,.97-3.48,1.95-5.22,2.92-.63,.34-1.26,.68-1.89,1.02-1.48,.81-2.96,1.6-4.44,2.41-1.75,.95-3.5,1.9-5.26,2.84-1.19,.64-2.39,1.27-3.59,1.91-.74,.39-1.48,.78-2.22,1.18-.31,.2-.64,.37-.98,.52-.41,.22-.82,.44-1.23,.65-1.28,.68-2.55,1.36-3.83,2.03-.55,.29-1.1,.59-1.66,.88-1.77,.91-3.53,1.82-5.3,2.73-1.29,.66-2.58,1.32-3.87,1.98-1.51,.77-3.02,1.54-4.53,2.31-1.24,.63-2.48,1.25-3.73,1.87-1.7,.85-3.42,1.7-5.13,2.54-.95,.47-1.91,.94-2.86,1.41-.48,.24-.97,.47-1.46,.7-2.34,1.14-4.69,2.27-7.03,3.39-.89,.43-1.78,.87-2.67,1.29-.26,.12-.52,.25-.78,.38-1.2,.57-2.41,1.13-3.61,1.7-.3,.14-.6,.28-.89,.41-1.25,.58-2.49,1.16-3.74,1.74-1.81,.84-3.61,1.7-5.43,2.53-1.49,.66-2.88,1.28-4.27,1.9-2.38,1.06-4.76,2.12-7.14,3.17-1.18,.52-2.36,1.03-3.54,1.55-1.68,.74-3.37,1.47-5.05,2.19-1.23,.52-2.46,1.03-3.7,1.55-.84,.35-1.67,.71-2.51,1.05l2.28-1.2,3.33-1.76,5.22-2.76Zm256.45,9.21c-.76,1.4-1.53,2.79-2.36,4.16-3.51,5.78-7.83,11.25-13.05,15.93-.28,.25-.56,.51-.84,.76-5.58,4.86-12.14,8.63-18.99,11.33-.97,.39-1.94,.74-2.92,1.08-1.96,.68-3.93,1.28-5.91,1.82-.54,.15-1.08,.3-1.63,.45-1.05,.26-2.12,.48-3.17,.7-2.36,.51-4.72,.97-7.09,1.35-.13,.02-.26,.05-.38,.07-1.26,.19-2.52,.33-3.79,.48-2.72,.33-5.45,.58-8.17,.75-.93,.06-1.85,.12-2.78,.16-3.36,.16-6.71,.22-10.05,.19-.26,0-.51,0-.77,0-3.64-.04-7.28-.18-10.89-.4-.39-.02-.77-.04-1.16-.07-1.62-.1-3.23-.22-4.84-.35-1.72-.15-3.45-.32-5.17-.5-.8-.09-1.59-.19-2.39-.28-3.17-.36-6.33-.77-9.49-1.24-.74-.11-1.48-.23-2.21-.34-2.68-.42-5.35-.89-8.02-1.39-.84-.16-1.67-.32-2.51-.49-.22-.04-.45-.09-.67-.13-1.78-.36-3.56-.75-5.33-1.15-.2-.05-.41-.09-.61-.14-.57-.13-1.13-.28-1.7-.41-1.11-.27-2.22-.53-3.33-.81,1.35-.07,2.69-.11,4.03-.17,.15,0,.3-.01,.46-.02-.17-.02-.34-.04-.51-.07-2.55-.33-5.11-.67-7.69-1.01-.27-.04-.54-.07-.81-.11-1.36-.18-2.73-.36-4.1-.54-2.5-.33-5.01-.65-7.51-.97-1.44-.18-2.88-.36-4.32-.54-2.63-.33-5.27-.64-7.9-.94-1.11-.12-2.22-.25-3.33-.36-2.22-.24-4.43-.46-6.64-.67-.98-.09-1.95-.19-2.93-.27-.41-.04-.81-.07-1.22-.1-1.67-.14-3.33-.27-4.99-.39-.2-.01-.4-.03-.6-.05-1.61-.11-3.21-.22-4.81-.3-.63-.04-1.26-.07-1.9-.1-1.33-.07-2.65-.12-3.97-.17-.58-.02-1.16-.04-1.73-.06-.84-.03-1.69-.04-2.53-.06-1.98-.04-3.95-.06-5.91-.04-.34,0-.68,0-1.02,0-.91,.01-1.81,.03-2.71,.05-.09,0-.18,0-.27,0-2.89,.07-5.77,.2-8.62,.4-.22,.01-.44,.03-.66,.05-.61,.04-1.21,.1-1.81,.15-.11,0-.22,.02-.33,.03-2.6,.23-5.18,.52-7.74,.88-.49,.07-.99,.13-1.49,.21-.65,.1-1.29,.21-1.93,.31-1,.17-2,.34-3,.53-1.07,.2-2.13,.41-3.19,.64-1.35,.29-2.68,.61-4.01,.94-.4,.1-.81,.21-1.21,.32-1.53,.4-3.04,.83-4.54,1.29-.4,.12-.8,.25-1.2,.38-.32,.1-.63,.21-.95,.32-2.15,.71-4.27,1.5-6.37,2.36-.5-.7-.98-1.43-1.47-2.14-.4-.58-.81-1.16-1.21-1.75-2.1-3.07-4.17-6.18-6.17-9.35-.33-.53-.65-1.07-.98-1.6-.78-1.26-1.56-2.51-2.33-3.79,1.76-.81,3.53-1.65,5.3-2.47,1.3-.61,2.59-1.21,3.89-1.82,2.12-1,4.24-2.01,6.37-3.02,1.05-.5,2.1-1,3.15-1.5,1.56-.74,3.08-1.46,4.62-2.2,.48-.23,.97-.48,1.46-.71,.46-.22,.92-.45,1.38-.68,2.45-1.18,4.9-2.37,7.36-3.58,1.45-.71,2.91-1.43,4.36-2.15,1.85-.91,3.7-1.83,5.56-2.76,1.19-.59,2.38-1.17,3.58-1.77,.25-.13,.5-.25,.75-.38,1.21-.61,2.44-1.24,3.65-1.85,.17-.09,.33-.17,.5-.25,1-.51,2-1.01,3-1.52,2.35-1.19,4.69-2.38,7.04-3.59,1.38-.7,2.76-1.42,4.14-2.13,1.59-.82,3.18-1.63,4.77-2.46,1.23-.64,2.47-1.29,3.7-1.93,1.6-.84,3.21-1.68,4.81-2.52,1.4-.74,2.8-1.46,4.21-2.2,2.36-1.25,4.72-2.52,7.09-3.78,.6-.32,1.21-.64,1.81-.96,.47-.26,.95-.51,1.42-.76,.54-.29,1.09-.58,1.63-.87,.85-.46,1.69-.92,2.54-1.38,.26-.14,.51-.28,.76-.41,.83-.45,1.65-.9,2.48-1.34,2.02-1.1,4.05-2.19,6.06-3.29,1.52-.83,3.02-1.67,4.53-2.5,2-1.1,4-2.2,5.99-3.31,.88-.49,1.77-.97,2.64-1.47,.2-.11,.39-.22,.59-.33,1.39-.78,2.77-1.56,4.16-2.34,.34-.19,.67-.38,1.01-.57,.79-.44,1.58-.88,2.36-1.32,2.4-1.35,4.78-2.71,7.16-4.06,1.26-.72,2.52-1.44,3.77-2.16,1.48-.85,2.97-1.69,4.45-2.54,1.08-.63,2.14-1.25,3.21-1.87,1.88-1.09,3.76-2.18,5.62-3.27,1.42-.83,2.84-1.66,4.26-2.49,2.21-1.3,4.4-2.6,6.59-3.9,.84-.5,1.69-1,2.53-1.5,.11-.07,.23-.13,.34-.2,1.26-.75,2.5-1.51,3.75-2.26,.2-.12,.41-.25,.61-.37,.88-.52,1.75-1.05,2.62-1.58,2.87-1.73,5.73-3.47,8.56-5.21,.65-.4,1.29-.79,1.94-1.19,.58-.36,1.16-.71,1.74-1.07,.54-.34,1.09-.67,1.64-1,.66-.41,1.34-.82,2-1.22,.35-.22,.69-.44,1.04-.65,.6-.38,1.19-.75,1.79-1.12,2.31-1.44,4.62-2.88,6.9-4.32,.71-.45,1.43-.9,2.14-1.35,2.55-1.61,5.06-3.22,7.57-4.83,.1-.06,.2-.13,.29-.19,2.65-1.7,5.27-3.4,7.88-5.1,.21-.14,.42-.28,.63-.41,2.66-1.73,5.29-3.46,7.9-5.19,3.56-2.36,7.08-4.71,10.55-7.06,1.98-1.34,3.98-2.69,5.93-4.03,5.07-3.47,10.01-6.93,14.86-10.37-4.41,5.02-9.12,9.83-13.96,14.5-.39,.93-1.15,1.66-2.11,2.02-1.66,1.58-3.33,3.15-5.01,4.71,1.49,.55,2.59,1.93,2.7,3.62,.14,2.27-1.59,4.22-3.86,4.35-1.98,.12-3.71-1.18-4.21-3.01-.38,.34-.75,.69-1.13,1.03-2.37,2.16-4.73,4.32-7.07,6.47,.9,1.01,1.49,2.29,1.58,3.74,.21,3.43-2.41,6.38-5.84,6.58-1.88,.11-3.59-.64-4.81-1.89-.49,.46-.97,.92-1.46,1.38,.13-.01,.25-.05,.38-.06,3.07-.18,5.76,1.84,6.54,4.7,.44-2.49,2.53-4.46,5.17-4.62,3.09-.19,5.75,2.17,5.93,5.26,.19,3.09-2.17,5.74-5.26,5.93-2.64,.16-4.95-1.55-5.68-3.97-.43,2.93-2.86,5.26-5.93,5.44-.52,.03-1.03-.02-1.52-.11,.79,.55,1.46,1.26,1.97,2.09,1.01-1.94,2.97-3.33,5.31-3.47,3.03-.18,5.68,1.77,6.53,4.55,.52-2.43,2.58-4.31,5.18-4.47,3.13-.19,5.81,2.2,6,5.32,.19,3.13-2.2,5.81-5.32,6-2.6,.15-4.87-1.47-5.67-3.82-.52,2.86-2.92,5.11-5.94,5.29-2.35,.14-4.45-1-5.69-2.81-.37,.81-.89,1.53-1.52,2.14,.42-.12,.86-.19,1.31-.22,2.99-.18,5.6,1.71,6.51,4.42,.58-2.38,2.63-4.22,5.2-4.37,3.16-.19,5.88,2.22,6.07,5.38,.19,3.16-2.22,5.88-5.38,6.06-2.57,.16-4.83-1.43-5.69-3.71-.58,2.79-2.95,4.98-5.93,5.16-.45,.03-.89,0-1.32-.06,.7,.53,1.3,1.18,1.77,1.94,1.01-1.94,2.97-3.33,5.31-3.47,3.03-.18,5.68,1.77,6.53,4.54,.52-2.42,2.58-4.31,5.18-4.46,3.13-.19,5.81,2.19,6,5.32,.19,3.13-2.2,5.81-5.32,6-2.6,.16-4.87-1.47-5.67-3.82-.51,2.86-2.91,5.11-5.94,5.29-2.34,.14-4.45-1-5.69-2.81-.41,.89-.99,1.67-1.71,2.31,.48-.15,.97-.26,1.5-.29,3.07-.19,5.76,1.83,6.54,4.7,.44-2.5,2.53-4.46,5.17-4.62,3.09-.19,5.75,2.17,5.93,5.26,.18,3.09-2.17,5.75-5.26,5.93-2.64,.16-4.95-1.54-5.68-3.97-.43,2.93-2.86,5.26-5.93,5.44-.7,.04-1.37-.06-2.02-.23,1.06,.63,1.92,1.55,2.51,2.65,.92-2.05,2.89-3.54,5.28-3.68,3.43-.2,6.38,2.41,6.58,5.84,.2,3.43-2.41,6.38-5.84,6.58-2.39,.14-4.53-1.11-5.69-3.03-.94,2.4-3.2,4.17-5.94,4.34-.54,.03-1.07-.02-1.58-.11,.89,.67,1.6,1.53,2.07,2.55,.79-2.18,2.81-3.79,5.27-3.94,3.3-.2,6.14,2.32,6.34,5.63,.2,3.3-2.32,6.14-5.63,6.34-2.46,.15-4.66-1.21-5.71-3.28-.5,1.59-1.58,2.92-3.01,3.75,.84-.49,1.8-.81,2.84-.87,2.99-.18,5.6,1.72,6.49,4.44,.56-2.41,2.62-4.27,5.21-4.42,3.16-.19,5.88,2.22,6.07,5.38,.19,3.16-2.22,5.88-5.38,6.07-2.59,.15-4.86-1.45-5.71-3.77-.56,2.81-2.93,5-5.92,5.18-2.37,.14-4.5-1.03-5.73-2.88-1.03,2.28-3.23,3.93-5.9,4.09-.42,.03-.82,0-1.23-.05,.69,.58,1.27,1.3,1.68,2.12,.86-2.12,2.86-3.68,5.29-3.82,3.38-.2,6.28,2.37,6.48,5.75,.2,3.37-2.37,6.28-5.75,6.48-2.43,.14-4.6-1.16-5.71-3.16-.88,2.46-3.15,4.28-5.92,4.44-.46,.03-.91,0-1.35-.06,.71,.55,1.3,1.23,1.75,2.02,.95-2.05,2.94-3.54,5.36-3.68,3.03-.18,5.69,1.8,6.48,4.61,.46-2.5,2.56-4.47,5.22-4.63,3.13-.19,5.81,2.2,6,5.32,.09,1.55-.45,3-1.4,4.08,1.39-.24,2.78-.49,4.16-.77-.94-.83-1.56-2.02-1.64-3.37-.16-2.7,1.89-5.02,4.59-5.18,2.7-.16,5.01,1.89,5.18,4.59,.04,.75-.09,1.46-.36,2.11,1.2-.33,2.39-.7,3.58-1.08-.15-.38-.26-.77-.29-1.2-.13-2.13,1.49-3.95,3.62-4.08,1.76-.1,3.3,1,3.85,2.59,3.93-1.7,7.7-3.74,11.24-6.21,.8-.55,1.59-1.12,2.37-1.7,3.56-2.67,6.87-5.73,10.02-9.05,1.73-1.82,3.42-3.72,5.07-5.67,.31-.36,.62-.73,.93-1.1-.12-.09-.2-.23-.21-.4-.02-.3,.21-.56,.52-.58,.15-.01,.29,.04,.39,.13,2.97-3.61,5.86-7.36,8.75-11.12-1.18,3.31-2.53,6.56-4.02,9.75-.82,1.77-1.7,3.51-2.63,5.23Zm-121.28,47.88c-.47-.04-.94-.08-1.41-.12-.11-.01-.22-.02-.33-.03-3.04-.26-6.08-.57-9.11-.91-.6-.07-1.19-.13-1.78-.2-.7-.08-1.27-.14-1.85-.21-.9-.1-1.8-.2-2.7-.3-.77-.09-1.54-.18-2.31-.26-.59-.07-1.18-.14-1.77-.2l-1.4-.17-6.92-.86-1.85-.23-9.03-1.11-.56-.07c-1.05-.14-2.1-.25-3.14-.38-2.59-.32-5.18-.64-7.77-.93-1.38-.16-2.77-.3-4.16-.45-1.56-.17-3.11-.35-4.67-.5-1.06-.12-2.12-.21-3.19-.32-1.19-.12-2.38-.22-3.57-.33-2.9-.25-5.8-.47-8.69-.65-.95-.06-1.68-.1-2.42-.15-.63-.04-1.26-.08-1.88-.12-.11,0-.21,0-.32-.01-1.48-.07-2.95-.13-4.43-.18-1.26-.04-2.52-.07-3.79-.09-.18,0-.35-.01-.53-.01-1.59-.03-3.17-.03-4.76-.03-.53,0-1.06,0-1.59,.01-1.6,.02-3.19,.06-4.79,.12-.21,0-.43,.02-.64,.03-1.65,.07-3.29,.16-4.94,.27-.42,.03-.84,.07-1.26,.1-1.64,.13-3.28,.28-4.92,.46-.16,.02-.32,.04-.49,.05-1.4,.16-2.8,.33-4.2,.54-.98,.14-1.96,.26-2.93,.42,.83-.26,1.67-.47,2.51-.7,1.22-.34,2.45-.66,3.68-.96,.95-.23,1.91-.45,2.87-.65,1.11-.23,2.23-.43,3.34-.63,.5-.09,1-.19,1.51-.27,.55-.09,1.11-.18,1.67-.26,2.62-.39,5.26-.7,7.91-.94,.85-.08,1.7-.14,2.56-.21,3.03-.22,6.07-.36,9.11-.42,.9-.01,1.69-.02,2.47-.02h.78c.42-.01,.84-.02,1.26-.02,1.73,0,3.45,.03,5.18,.07,.85,.02,1.7,.06,2.55,.09,.48,.02,.96,.03,1.43,.05,1.35,.06,2.7,.13,4.05,.2,.68,.04,1.36,.07,2.05,.12,1.5,.09,2.99,.2,4.49,.32,.39,.03,.79,.06,1.18,.1,1.58,.13,3.15,.26,4.73,.41,.37,.03,.74,.07,1.12,.11,.81,.08,1.63,.16,2.44,.24,2.42,.25,4.83,.51,7.24,.79,1.05,.12,2.1,.24,3.15,.36,.11,.01,.22,.03,.34,.04,2.64,.34,5.26,.71,7.89,1.06,1.31,.17,2.61,.35,3.92,.53,2.66,.36,5.31,.7,7.97,1.08,.12,.02,3.39,.49,3.39,.49l3.19,.46,6.7,.97,.76,.11c.22,.03,1.9,.28,1.9,.28l3.77,.54c.09,.01,.19,.02,.29,.04,.43,.06,.86,.12,1.29,.17,.76,.1,1.52,.2,2.29,.3,2.62,.36,5.25,.71,7.87,1.04,3.85,.49,7.61,.92,11.36,1.32,.34,.04,.69,.07,1.03,.11,3.63,.38,7.27,.71,10.91,1,.24,.02,.48,.04,.72,.06,1.27,.1,2.54,.22,3.81,.3-1.28,.09-2.55,.16-3.83,.22-.21,.01-.41,.03-.62,.04-3.54,.16-7.09,.22-10.64,.18-.53,0-1.06-.03-1.59-.03-.23,0-.46-.01-.7-.01-3.07-.06-6.15-.18-9.22-.35-.7-.04-1.39-.08-2.09-.12-3.3-.2-6.58-.46-9.87-.74Zm-165.45-26.47c-.55-.91-1.1-1.83-1.64-2.75-.13-.21-.26-.42-.38-.64-.3-.51-.61-1-.9-1.51-1.72-3.06-3.37-6.14-4.98-9.25-.12-.24-.19-.38-.26-.52-.54-1.03-1.06-2.08-1.58-3.12-.41-.83-.85-1.64-1.26-2.47-.06-.12-.11-.23-.16-.34-.6-1.27-1.2-2.53-1.78-3.8-.28-.6-.54-1.2-.82-1.8-.06-.14-.13-.28-.19-.41-.79-1.74-1.56-3.49-2.31-5.24-.4-.94-.78-1.88-1.16-2.82-.2-.48-.4-.96-.59-1.45-.12-.29-.23-.59-.35-.89-.42-1.05-.84-2.1-1.24-3.16-.07-.18-.14-.36-.2-.54-.32-.85-.64-1.7-.95-2.55-.33-.89-.65-1.78-.97-2.68-.15-.44-.25-.72-.36-1-1.25-3.58-2.42-7.19-3.48-10.83-.16-.55-.32-1.1-.48-1.66-.34-1.19-.66-2.38-.98-3.57-.54-2.02-1.05-4.05-1.52-6.08,.78,1.92,1.57,3.83,2.36,5.74,.44,1.08,.89,2.15,1.34,3.23,.22,.54,.46,1.08,.68,1.62,1.44,3.43,2.91,6.84,4.41,10.24,.26,.59,.52,1.19,.78,1.78,.27,.6,.53,1.19,.8,1.79,.42,.93,.86,1.86,1.28,2.79,.67,1.47,1.34,2.95,2.02,4.41,.23,.49,.47,.98,.7,1.47,.23,.49,.47,.98,.71,1.47,1.68,3.5,3.38,6.99,5.15,10.44,.13,.25,.26,.51,.4,.76,.25,.48,.39,.77,.55,1.06,.21,.41,.34,.64,.46,.88,.07,.14,.15,.28,.22,.42,1.43,2.76,2.91,5.51,4.41,8.23,.09,.16,.18,.33,.27,.49,.11,.2,.23,.41,.34,.61,.51,.92,1.02,1.84,1.54,2.75,.35,.61,.67,1.22,1.02,1.83,1,1.76,2.03,3.51,3.06,5.25,.15,.25,.27,.47,.4,.69,.19,.33,.29,.5,.39,.67,.58,.97,1.17,1.94,1.76,2.91,1.58,2.61,3.2,5.2,4.85,7.77,.13,.21,.27,.42,.41,.63,1.37,2.14,2.77,4.27,4.18,6.39,.73,1.1,1.47,2.2,2.21,3.29,.08,.12,.16,.24,.24,.36,.21,.31,.41,.62,.62,.93,2.1,3.05,4.17,5.95,6.27,8.83,.23,.32,.47,.64,.7,.96,.27,.36,.54,.73,.81,1.1,.92,1.24,1.83,2.49,2.76,3.73,1.45,1.93,2.92,3.86,4.41,5.78,.2,.26,.41,.53,.61,.79,1.69,2.17,3.39,4.33,5.1,6.49-2.09-1.91-4.13-3.87-6.13-5.88-.24-.24-.46-.49-.7-.73-1.76-1.79-3.49-3.6-5.18-5.45-1.15-1.27-2.26-2.57-3.38-3.86-.09-.1-.18-.2-.27-.31-.25-.29-.5-.57-.75-.86-1.31-1.53-2.6-3.09-3.87-4.66-.91-1.13-1.83-2.24-2.72-3.38-.11-.14-.23-.28-.33-.42-.53-.67-1.04-1.36-1.56-2.04-.15-.2-.31-.39-.46-.6-.48-.64-.96-1.29-1.44-1.94-.06-.08-.12-.16-.18-.24-.17-.23-.34-.47-.51-.7-.74-1.01-1.47-2.03-2.19-3.05-1.29-1.83-2.56-3.67-3.81-5.52-.28-.43-.55-.87-.83-1.31-.06-.09-.11-.17-.16-.26-.05-.08-.1-.16-.15-.24-.45-.69-.89-1.38-1.33-2.08-.94-1.48-1.88-2.95-2.8-4.45-.31-.51-.61-1.03-.92-1.54ZM116.09,255.84c-.06-.95,.66-1.76,1.61-1.82,.95-.06,1.76,.67,1.82,1.61,.06,.95-.67,1.76-1.61,1.82-.95,.06-1.76-.66-1.82-1.61Zm5.91-12.06c-.03-.52,.36-.96,.88-.99,.52-.03,.96,.36,1,.88,.03,.52-.36,.96-.88,.99-.52,.03-.96-.36-.99-.88Zm29.14-17.73c.5-.03,.99,.04,1.45,.18,.26-2.09,.55-4.18,.87-6.26-.24-.44-.39-.93-.43-1.46-.07-1.1,.39-2.09,1.15-2.78,.95-5.38,2.12-10.7,3.5-15.93-.53,4.96-.93,9.96-1.18,15.02-.11,2.31-.2,4.63-.25,6.96-.12,5.05-.08,10.14,.08,15.25,.1,3.1,.24,6.21,.44,9.33,.08,1.34,.19,2.67,.29,4.01,.15,1.91,.31,3.82,.5,5.73,.11,1.1,.21,2.21,.33,3.31,.41,3.75,.89,7.5,1.44,11.26,.15,1.01,.28,2.01,.44,3.02,.36,2.33,.76,4.67,1.18,7.01,.08,.47,.18,.94,.27,1.41,.5,2.71,1.04,5.43,1.61,8.14,.24,1.16,.48,2.31,.74,3.47,.79,3.55,1.64,7.02,2.54,10.5,.2,.76,.38,1.52,.58,2.28,.07,.27,.15,.55,.23,.82,.1,.37,.21,.74,.31,1.11,.4,1.46,.8,2.92,1.22,4.39,.3,1.03,.61,2.06,.92,3.09,.05,.18,.11,.36,.16,.54,1.03,3.45,2.11,6.89,3.26,10.33-3.11,.75-6.1,1.18-8.96,1.26-.71,.02-1.41,.02-2.1,0-3.8-.12-7.38-.86-10.77-2.2-1.13-.45-2.16-.91-3.16-1.44-2.25-1.2-4.35-2.65-6.31-4.28-.94-.78-1.84-1.61-2.71-2.47-1.64-1.62-3.16-3.36-4.58-5.18-1.8-2.33-3.44-4.78-4.91-7.3-.52-.89-1.02-1.79-1.5-2.7-.56-1.05-1.1-2.1-1.61-3.14,.52,.55,1.05,1.1,1.59,1.62,.34-2.08,2.07-3.72,4.26-3.85,2.54-.15,4.72,1.78,4.87,4.32,.12,2.06-1.14,3.87-2.97,4.56,1.02,.67,2.06,1.29,3.11,1.81,.44,.22,.88,.41,1.32,.59,1.54-.12,2.76,.38,3.66,1.22,1.1,.26,2.19,.42,3.28,.51,.81-1.92,2.64-3.33,4.87-3.46,1.91-.11,3.64,.73,4.75,2.11,.63-.21,1.26-.43,1.88-.68,1.08-1.64,2.87-2.78,4.98-2.91,.31-.02,.6,.02,.9,.04,.1-.06,.2-.12,.3-.17-.67-.54-1.24-1.19-1.68-1.94-.98,1.98-2.93,3.4-5.29,3.54-3.08,.19-5.77-1.86-6.52-4.73-.42,2.53-2.52,4.53-5.19,4.69-3.09,.18-5.75-2.17-5.93-5.26-.18-3.09,2.17-5.75,5.26-5.93,2.66-.16,5,1.57,5.71,4.04,.4-2.95,2.83-5.29,5.91-5.48,2.36-.14,4.47,1.04,5.68,2.89,.49-1.13,1.26-2.12,2.26-2.85-.64,.27-1.32,.46-2.05,.51-2.07,.12-3.95-.79-5.17-2.27l-2.23,.64c-.04-.29-.08-.58-.12-.87-.91,1.37-2.42,2.33-4.19,2.43-3,.18-5.58-2.11-5.76-5.11-.18-3,2.11-5.58,5.11-5.76,1.5-.09,2.89,.43,3.93,1.35-.09-.74-.17-1.48-.25-2.22-2.31-.72-4.05-2.79-4.2-5.35-.15-2.44,1.19-4.62,3.24-5.68-.06-.93-.13-1.85-.18-2.78-.82,.92-1.99,1.53-3.31,1.6-2.66,.16-4.95-1.87-5.11-4.53-.16-2.66,1.87-4.95,4.53-5.11,1.38-.08,2.66,.44,3.59,1.31-.04-1.16-.04-2.32-.06-3.48-1.92-.73-3.35-2.52-3.48-4.7-.15-2.42,1.35-4.54,3.51-5.34,.04-1.62,.09-3.23,.16-4.84,.14-3.08,.36-6.14,.63-9.2-2.43,.15-4.45-1.64-4.59-4-.14-2.36,1.66-4.38,4.01-4.52Zm-3.73-18.9c-.09-1.43,1-2.66,2.43-2.74,1.43-.09,2.66,1,2.74,2.43,.09,1.43-1,2.65-2.43,2.74-1.43,.09-2.66-1-2.74-2.43Zm6.27-12.08c-.05-.8,.57-1.49,1.37-1.54,.8-.05,1.49,.56,1.54,1.37s-.57,1.5-1.37,1.54c-.8,.05-1.49-.57-1.54-1.37Zm333.52,72.21c.8-.05,1.49,.57,1.54,1.37s-.56,1.49-1.37,1.54c-.8,.05-1.49-.56-1.54-1.37-.05-.8,.56-1.5,1.37-1.54Zm-1.86-21.84c-.02-.31,.21-.57,.52-.58,.3-.02,.56,.21,.58,.52,.02,.31-.21,.57-.52,.58-.3,.02-.56-.22-.58-.52Zm3.23,44.68c1.07-.06,1.99,.75,2.06,1.82,.06,1.07-.75,1.99-1.83,2.06-1.07,.06-1.99-.75-2.06-1.82-.07-1.07,.75-1.99,1.82-2.06Zm1.4,23.32c1.07-.06,1.99,.76,2.06,1.83,.07,1.07-.75,1.99-1.82,2.05-1.07,.07-1.99-.75-2.06-1.82-.06-1.07,.75-1.99,1.83-2.06Zm2.97,25.18c.05,.8-.56,1.49-1.37,1.54-.8,.05-1.49-.56-1.54-1.37-.05-.8,.56-1.5,1.37-1.54,.8-.05,1.49,.57,1.54,1.37Zm-34.38-61.08c2.54-.15,4.72,1.78,4.87,4.32,.15,2.54-1.78,4.72-4.32,4.87-2.54,.15-4.72-1.78-4.87-4.32-.15-2.54,1.78-4.71,4.32-4.87Zm-5.93-1.29c-3,.18-5.58-2.11-5.76-5.1-.18-3,2.11-5.58,5.11-5.76,3-.18,5.58,2.11,5.76,5.11,.18,3-2.11,5.58-5.11,5.76Zm22.82-9.93c1.72-.1,3.19,1.2,3.29,2.92,.1,1.72-1.2,3.19-2.92,3.29-1.72,.1-3.19-1.2-3.29-2.92-.1-1.72,1.2-3.19,2.92-3.29Zm-3.47-20.09c-.07-1.25,.88-2.33,2.13-2.4,1.25-.07,2.33,.88,2.4,2.13,.07,1.25-.88,2.33-2.13,2.4-1.25,.07-2.32-.88-2.4-2.13Zm8.04,96.27c-1.71,.1-3.19-1.2-3.29-2.92-.1-1.72,1.2-3.19,2.92-3.29,1.72-.1,3.19,1.21,3.29,2.92,.1,1.72-1.2,3.19-2.92,3.29Zm3.47,20.09c.08,1.25-.88,2.32-2.13,2.4-1.25,.07-2.32-.88-2.4-2.13-.08-1.25,.88-2.33,2.13-2.4,1.25-.07,2.32,.88,2.4,2.13Zm-19.69-22.23c-.14-2.41,1.69-4.48,4.1-4.63,2.41-.14,4.48,1.69,4.63,4.1,.15,2.41-1.69,4.48-4.1,4.63-2.41,.14-4.48-1.69-4.63-4.1Zm3.34,11.51c.14,2.27-1.59,4.22-3.86,4.35-2.27,.13-4.22-1.59-4.35-3.86-.14-2.27,1.59-4.22,3.86-4.35,2.27-.13,4.22,1.59,4.35,3.86Zm-1.49-53.76c-2.57,.15-4.78-1.81-4.94-4.38-.15-2.57,1.81-4.78,4.38-4.94,2.57-.15,4.78,1.81,4.94,4.38,.15,2.57-1.8,4.78-4.38,4.94Zm6.04,3.16c1.93-.12,3.59,1.35,3.7,3.28,.12,1.93-1.35,3.59-3.29,3.71-1.93,.12-3.59-1.36-3.7-3.29-.12-1.93,1.36-3.59,3.29-3.7Zm-.27,15.23c.15,2.57-1.81,4.78-4.38,4.94-2.57,.15-4.78-1.81-4.94-4.38-.15-2.57,1.8-4.78,4.38-4.93,2.57-.16,4.78,1.8,4.94,4.38Zm-1.43,11.79c-.11-1.82,1.28-3.39,3.1-3.49,1.82-.11,3.39,1.28,3.5,3.1,.11,1.82-1.28,3.39-3.1,3.5-1.82,.11-3.39-1.28-3.5-3.1Zm8.64-8.72c-1.93,.12-3.59-1.35-3.7-3.28-.12-1.93,1.36-3.59,3.29-3.7,1.93-.12,3.59,1.35,3.7,3.28,.12,1.93-1.36,3.59-3.28,3.7Zm-1.4-23.33c-1.93,.12-3.59-1.35-3.7-3.29-.12-1.93,1.35-3.59,3.28-3.7s3.59,1.36,3.7,3.29c.12,1.93-1.35,3.59-3.28,3.7Zm-3.44-15.01c.11,1.82-1.28,3.39-3.1,3.5-1.82,.11-3.39-1.28-3.5-3.1-.11-1.82,1.28-3.39,3.1-3.49,1.82-.11,3.39,1.28,3.5,3.1Zm-4.53-20.41c-1.5,.09-2.79-1.05-2.88-2.55-.09-1.5,1.05-2.79,2.55-2.88,1.5-.09,2.79,1.05,2.88,2.55,.09,1.5-1.05,2.79-2.55,2.88Zm-.93,9.03c.14,2.41-1.69,4.48-4.1,4.63-2.41,.14-4.48-1.69-4.63-4.1-.15-2.41,1.69-4.48,4.1-4.63,2.41-.14,4.48,1.69,4.63,4.1Zm-3.35,35.32c.16,2.63-1.84,4.88-4.47,5.04-2.63,.16-4.88-1.84-5.04-4.47-.16-2.63,1.85-4.88,4.47-5.04,2.62-.16,4.88,1.84,5.04,4.47Zm1.24,23.34c.15,2.53-1.78,4.71-4.32,4.87-2.54,.15-4.71-1.78-4.87-4.32-.15-2.54,1.78-4.72,4.32-4.87,2.54-.15,4.71,1.78,4.87,4.32Zm-4.29,11.96c.18,3-2.11,5.58-5.11,5.76-3,.18-5.58-2.11-5.76-5.11-.18-3,2.11-5.58,5.11-5.76,3-.18,5.58,2.11,5.76,5.11Zm-5.39,12.03c.17,2.86-2.01,5.31-4.86,5.48-2.86,.17-5.31-2.01-5.48-4.86s2.01-5.31,4.87-5.48c2.86-.17,5.31,2.01,5.48,4.86Zm.59,23.38c.15,2.41-1.69,4.48-4.1,4.62-2.41,.15-4.48-1.69-4.63-4.1-.14-2.41,1.69-4.48,4.1-4.62,2.41-.14,4.48,1.69,4.63,4.1Zm-4.05-11.46c-.16-2.66,1.87-4.95,4.53-5.11,2.66-.16,4.95,1.87,5.11,4.53,.16,2.66-1.87,4.95-4.53,5.1-2.66,.16-4.95-1.87-5.11-4.53Zm11.16,7.82c1.77-.11,3.29,1.24,3.39,3.01,.11,1.77-1.24,3.29-3.01,3.39-1.77,.1-3.29-1.24-3.39-3.01-.11-1.77,1.24-3.29,3.01-3.39Zm1.64-8.59c-.12-2.04,1.43-3.78,3.47-3.91,2.04-.12,3.79,1.43,3.91,3.47,.12,2.04-1.43,3.78-3.47,3.91-2.04,.12-3.79-1.43-3.91-3.47Zm6.1-12.07c-.09-1.5,1.05-2.79,2.55-2.88,1.5-.09,2.79,1.05,2.88,2.56,.09,1.5-1.05,2.79-2.55,2.88-1.5,.09-2.79-1.05-2.88-2.55Zm4.01,21.45c.95-.06,1.76,.67,1.82,1.61,.06,.95-.67,1.76-1.61,1.82-.95,.06-1.76-.66-1.82-1.61-.06-.95,.66-1.76,1.61-1.82Zm9.08-43.92c-.95,.06-1.76-.67-1.82-1.61-.06-.95,.66-1.76,1.61-1.82,.95-.06,1.76,.66,1.82,1.61,.06,.95-.67,1.76-1.61,1.82Zm2.36,21.55c.04,.59-.41,1.1-1,1.13-.59,.03-1.1-.42-1.13-1-.04-.59,.41-1.1,1-1.13,.59-.04,1.1,.41,1.13,1Zm-3.74-44.64c-1.07,.06-1.99-.76-2.06-1.83-.06-1.07,.75-1.99,1.82-2.06,1.07-.06,1.99,.76,2.06,1.83,.06,1.07-.75,1.99-1.83,2.06Zm-1.61-26.98c.95-.06,1.76,.67,1.82,1.61,.06,.95-.66,1.76-1.61,1.82-.95,.06-1.76-.66-1.82-1.61-.06-.95,.67-1.76,1.61-1.82Zm-2.36-21.55c-.04-.59,.41-1.1,1-1.13,.59-.04,1.1,.41,1.13,1,.04,.59-.41,1.1-1,1.13-.59,.04-1.09-.41-1.13-1Zm-337.94,31.94c.14,2.41-1.69,4.48-4.1,4.62-2.41,.14-4.48-1.69-4.63-4.1-.14-2.41,1.69-4.48,4.1-4.63,2.41-.14,4.48,1.69,4.63,4.1Zm-4.41-11.44c-.17-2.86,2.01-5.31,4.86-5.48,2.86-.17,5.31,2.01,5.48,4.86s-2,5.31-4.86,5.48c-2.86,.17-5.31-2.01-5.48-4.86Zm-6.24,4.49c-2.27,.14-4.22-1.59-4.35-3.86-.14-2.27,1.59-4.22,3.86-4.35,2.27-.13,4.22,1.6,4.35,3.86,.14,2.27-1.59,4.22-3.86,4.35Zm-6.64-13.16c-1.25,.07-2.33-.88-2.4-2.13-.07-1.25,.88-2.33,2.13-2.4,1.25-.07,2.33,.88,2.4,2.13,.07,1.25-.88,2.33-2.13,2.4Zm1.08,18.05c1.66-.1,3.09,1.17,3.19,2.83,.1,1.66-1.17,3.09-2.83,3.19-1.66,.1-3.09-1.17-3.19-2.83-.1-1.66,1.17-3.09,2.83-3.19Zm19.45-66.1c-1.25,.07-2.32-.88-2.4-2.13-.08-1.25,.88-2.33,2.13-2.4,1.25-.07,2.32,.88,2.4,2.13,.08,1.25-.88,2.33-2.13,2.4Zm1.03,17.28c2.09-.13,3.89,1.47,4.01,3.56s-1.47,3.88-3.56,4.01c-2.09,.12-3.89-1.47-4.01-3.56-.12-2.09,1.47-3.88,3.56-4.01Zm-6.12-4.43c-1.71,.1-3.19-1.2-3.29-2.92-.1-1.72,1.21-3.19,2.92-3.29,1.71-.1,3.19,1.2,3.29,2.92,.1,1.71-1.2,3.19-2.92,3.29Zm.95,15.86c2.41-.14,4.48,1.69,4.63,4.1,.14,2.41-1.69,4.48-4.1,4.63-2.41,.14-4.48-1.69-4.63-4.1-.14-2.41,1.69-4.48,4.1-4.63Zm-6.12-4.46c-1.38,.08-2.56-.97-2.64-2.34-.08-1.37,.97-2.56,2.34-2.64,1.37-.08,2.56,.97,2.64,2.34,.08,1.38-.97,2.56-2.34,2.64Zm1.03,17.15c2.04-.12,3.79,1.43,3.91,3.46,.12,2.04-1.43,3.79-3.47,3.91-2.04,.12-3.79-1.43-3.91-3.47-.12-2.04,1.43-3.78,3.47-3.91Zm-6.12-4.52c-1.71,.1-3.19-1.2-3.29-2.92-.1-1.72,1.2-3.19,2.92-3.29,1.71-.1,3.19,1.2,3.29,2.92s-1.2,3.19-2.92,3.29Zm-10.61,18.21c1.5-.09,2.79,1.05,2.88,2.55,.09,1.47-1.01,2.74-2.47,2.87-.61-2.11-1.07-3.87-1.37-5.17,.3-.14,.62-.23,.97-.25Zm327.42,100.17c.18,2.97-2.08,5.51-5.05,5.69-2.97,.17-5.51-2.08-5.69-5.05-.18-2.97,2.08-5.51,5.05-5.69,2.97-.18,5.51,2.08,5.69,5.05ZM129.78,231.61c.03,.54-.2,1.02-.58,1.35-.28,.25-.63,.44-1.03,.46-.95,.06-1.76-.66-1.82-1.61-.06-.94,.67-1.76,1.61-1.82,.95-.06,1.76,.67,1.82,1.61h0Zm2.74-11.87c-.02-.38,.26-.7,.64-.72,.38-.02,.7,.26,.72,.64,.02,.38-.26,.7-.64,.72-.38,.03-.7-.26-.72-.64Zm5.88-10.86c-.66,.04-1.23-.46-1.27-1.12-.04-.66,.46-1.23,1.12-1.27s1.23,.46,1.27,1.13c.04,.66-.46,1.23-1.12,1.27Zm-25.77,58.31c.3-.02,.56,.22,.58,.52,.02,.3-.21,.57-.52,.58-.3,.02-.57-.21-.58-.52-.02-.31,.21-.57,.52-.58Zm-2.42,57.28c1.07-.07,1.99,.75,2.06,1.82,.06,1.07-.75,1.99-1.83,2.06-1.07,.06-1.99-.75-2.06-1.83-.07-1.07,.75-1.99,1.82-2.05Zm3.23,25.16c.06,.95-.67,1.76-1.61,1.82-.95,.06-1.76-.66-1.82-1.61-.06-.95,.66-1.76,1.61-1.82,.95-.06,1.76,.66,1.82,1.61Zm16.66,13.73c-1.66,.1-3.09-1.17-3.19-2.83-.1-1.66,1.17-3.09,2.83-3.19,1.66-.1,3.09,1.17,3.19,2.83,.1,1.66-1.17,3.09-2.83,3.19Zm6.1,4.2c2.27-.14,4.22,1.59,4.36,3.86,.13,2.27-1.59,4.22-3.86,4.35-2.27,.14-4.22-1.59-4.35-3.86-.14-2.27,1.59-4.22,3.86-4.35Zm-5.02,13.86c1.25-.08,2.33,.88,2.4,2.13,.06,1-.55,1.89-1.44,2.24-.22,.09-.44,.14-.69,.16-1.25,.08-2.32-.88-2.4-2.13-.05-.93,.46-1.76,1.25-2.16,.27-.13,.56-.22,.88-.24Zm-4.08-7.63c-.45,.73-1.23,1.24-2.15,1.29-1.5,.09-2.79-1.05-2.88-2.55-.09-1.5,1.05-2.79,2.55-2.88,.36-.02,.7,.03,1.01,.14,1.03,.34,1.8,1.27,1.86,2.41,.04,.58-.12,1.13-.4,1.59Zm-8.76-11.28c-.8,.05-1.49-.56-1.54-1.37-.05-.8,.57-1.5,1.37-1.54,.8-.05,1.49,.57,1.54,1.37,.05,.8-.56,1.5-1.37,1.54Zm-.71-23.15c-.2,.1-.43,.16-.67,.18-1,.06-1.86-.7-1.92-1.7-.06-1,.7-1.86,1.7-1.92,.11,0,.2,.03,.31,.04,.86,.1,1.55,.77,1.61,1.66,.05,.76-.39,1.43-1.03,1.74Zm-4.45,34.77c-.59,.03-1.1-.42-1.13-1-.04-.59,.41-1.09,1-1.13,.59-.04,1.1,.41,1.13,1,.04,.59-.42,1.09-1,1.13Zm6.5,10.79c-.31,.02-.57-.21-.58-.52-.01-.19,.08-.36,.23-.47,.08-.06,.18-.11,.29-.12,.3-.02,.56,.21,.58,.52,.02,.28-.19,.52-.46,.57-.02,0-.03,.01-.05,.01Zm4.78,10.87c0-.14,.03-.27,.06-.41,.14-.76,.75-1.36,1.56-1.41,.49-.03,.94,.16,1.27,.46l6.7-4.63,6.25-4.32c-.57-.61-.96-1.4-1.01-2.3-.12-2.04,1.43-3.79,3.47-3.91,1.53-.09,2.9,.77,3.54,2.06l9.53-6.58c-1.16-1.02-1.93-2.48-2.03-4.15-.09-1.5,.4-2.9,1.26-4-3.52-1.1-6.91-2.5-10.11-4.19-.75,.9-1.84,1.51-3.1,1.59-2.41,.14-4.48-1.69-4.63-4.1-.04-.73,.11-1.42,.39-2.04-2.52-1.82-4.91-3.8-7.1-5.92-1.53-1.48-2.96-3.04-4.32-4.63,.28,.45,.46,.96,.49,1.52,.11,1.82-1.28,3.39-3.1,3.49-1.82,.11-3.39-1.28-3.5-3.1-.11-1.82,1.28-3.39,3.1-3.5,.87-.05,1.66,.24,2.28,.75-1.51-1.82-2.92-3.71-4.24-5.63-1.68-2.46-3.19-5-4.58-7.57-2.56-4.74-4.68-9.64-6.45-14.62,1.7,2.77,3.57,5.51,5.63,8.16,2.76,3.57,5.85,6.96,9.31,10.03,1.36,1.21,2.79,2.36,4.26,3.46,1.66,1.24,3.39,2.39,5.2,3.46,.7,.41,1.4,.83,2.12,1.21,.78,.42,1.57,.8,2.36,1.17,.68,.33,1.37,.63,2.07,.92,3.39,1.44,6.88,2.53,10.46,3.25,.54,.11,1.08,.22,1.62,.31,3.13,.53,6.33,.8,9.59,.79,.83,0,1.66-.04,2.5-.07,3.43-.16,6.93-.6,10.5-1.34,1.75-.36,3.46-.76,5.18-1.25,.5,1.21,1,2.41,1.51,3.61,.06,.15,.12,.3,.19,.45,.37,.87,.75,1.73,1.13,2.59,1.14,2.59,2.31,5.17,3.51,7.72,.15,.32,.31,.64,.46,.96,.1,.21,.2,.42,.31,.63,.57,1.19,1.13,2.38,1.71,3.56,.13,.28,.26,.55,.4,.83,.05,.11,.1,.22,.15,.32-1.01,.45-1.84,.8-2.68,1.17-2.98,1.31-5.95,2.61-8.9,3.88-2.03,.87-3.99,1.7-5.96,2.54-.71,.3-1.42,.61-2.12,.9-3.39,1.43-6.75,2.84-10.09,4.21-.39,.16-.79,.33-1.18,.5-2.68,1.1-5.34,2.18-7.99,3.24-5.45,2.2-10.85,4.33-16.16,6.37-2.52,.97-5.02,1.92-7.51,2.85-.21,.08-.42,.16-.62,.23-.31,.12-.62,.24-.92,.35l.58,1.57c-.17,.07-.34,.13-.53,.14-.3,.02-.58-.07-.84-.19-.54-.26-.94-.78-.98-1.42Zm18.47-24.52c-.17-2.86,2.01-5.31,4.86-5.48,2.86-.17,5.31,2.01,5.48,4.87,.17,2.85-2.01,5.31-4.86,5.48-2.86,.17-5.31-2.01-5.48-4.87Zm-5.41,47.15c0-.14,.03-.27,.06-.41,.08-.42,.3-.79,.64-1.04-.43,.02-.86,.04-1.3,.06-.41,.02-.81,.04-1.22,.06,.34-.13,.68-.26,1.01-.38,3.49-1.31,7.01-2.66,10.57-4.04,2.79-1.09,5.6-2.18,8.43-3.3,1.06-.42,2.13-.86,3.19-1.29,1.38-.55,2.76-1.11,4.15-1.67,2.98-1.21,5.98-2.45,9-3.7,.74-.31,1.47-.61,2.2-.91,2.31-.96,4.63-1.94,6.96-2.93,.3-.13,.61-.26,.92-.39,2.61-1.11,5.23-2.23,7.86-3.37,.21-.09,.42-.18,.63-.28,1.12-.48,2.24-.98,3.37-1.47,2.13-.93,4.26-1.85,6.41-2.81,.37-.16,.75-.33,1.12-.5,.55,.93,1.08,1.86,1.64,2.79,.15,.25,.31,.5,.47,.75,.61,1.02,1.24,2.02,1.86,3.02,.3,.49,.6,.99,.91,1.48,.37,.58,.73,1.18,1.09,1.76,.65,1.02,1.33,2.03,1.99,3.04,1.27,1.95,2.56,3.88,3.87,5.79,.14,.2,.28,.4,.42,.6,.22,.32,.44,.63,.66,.95,.06,.09,.12,.18,.19,.27-.16,.12-.32,.25-.48,.37-3.55,2.67-6.7,5.48-9.41,8.43-.27,.29-.54,.59-.8,.89-2.13,2.42-4,4.93-5.59,7.52-1.4,2.3-2.56,4.68-3.52,7.13-.43,1.09-.82,2.18-1.16,3.3-.75,2.45-1.32,4.97-1.65,7.55-.06,.45-.09,.9-.13,1.34-.2,2.07-.26,4.12-.18,6.13,.09,2.25,.34,4.47,.72,6.63,.98,5.6,2.84,10.85,5.09,15.57-.4-.48-.79-.97-1.17-1.46-.16,.43-.56,.75-1.05,.78-.66,.04-1.23-.46-1.27-1.12-.04-.64,.44-1.19,1.08-1.26-1.86-2.49-3.58-5.12-5.13-7.89-.34,.2-.72,.33-1.13,.35-1.43,.09-2.66-1-2.74-2.43-.07-1.11,.58-2.09,1.54-2.52-.3-.65-.61-1.29-.88-1.96-.48-1.13-.91-2.29-1.32-3.47-.28-.82-.54-1.64-.78-2.47-.19,.44-.48,.83-.86,1.11-.41,.31-.92,.51-1.48,.54-1.5,.09-2.79-1.05-2.88-2.55-.03-.52,.09-1.01,.32-1.44,.43-.81,1.25-1.38,2.23-1.44,.69-.04,1.32,.19,1.83,.58-.31-1.34-.58-2.69-.78-4.07-.34-2.32-.52-4.69-.53-7.08l.03-1.78,.02-.82,.06-.95c.06-.87,.14-1.67,.23-2.47-.55,.29-1.16,.47-1.82,.51-2.5,.15-4.65-1.76-4.8-4.26-.15-2.5,1.76-4.65,4.26-4.8,1.46-.09,2.79,.54,3.68,1.57,.28-1.08,.6-2.15,.95-3.21-2.75-.36-4.94-2.62-5.11-5.49-.12-1.97,.76-3.77,2.19-4.93-1.73,.31-3.46,.61-5.2,.9,1.36,.86,2.3,2.33,2.41,4.06,.17,2.86-2.01,5.31-4.87,5.48-2.86,.17-5.31-2.01-5.48-4.87-.08-1.34,.37-2.58,1.15-3.55-.86,.14-1.71,.29-2.57,.42-.74,.12-1.48,.22-2.22,.33,.81,.73,1.35,1.76,1.42,2.93,.14,2.36-1.66,4.38-4.01,4.52s-4.38-1.66-4.52-4.01c-.05-.9,.18-1.74,.61-2.46-1.92,.28-3.84,.53-5.76,.77,.49,.51,.82,1.19,.86,1.95,.07,1.15-.5,2.17-1.38,2.76-.44,.3-.96,.49-1.53,.53-1.71,.1-3.19-1.21-3.29-2.92-.04-.62,.12-1.21,.4-1.71-2.7,.31-5.41,.57-8.11,.77,.48,.28,.83,.76,.87,1.35,.06,.95-.66,1.76-1.61,1.82-.15,0-.3-.03-.44-.06-.74-.15-1.33-.76-1.37-1.55Zm23.85,21.98c-.09-1.43,1-2.66,2.43-2.74,1.43-.09,2.66,1,2.74,2.43,.09,1.43-1,2.66-2.43,2.75-1.43,.09-2.65-1-2.74-2.43Zm9.2,12.61c-.8,.05-1.49-.57-1.54-1.37-.05-.8,.57-1.49,1.37-1.54,.8-.05,1.49,.56,1.54,1.37,.05,.8-.56,1.49-1.37,1.54Zm-13.01-21.82c-1.25,.07-2.32-.88-2.4-2.13-.07-1.25,.88-2.33,2.13-2.4,.13,0,.26,0,.39,.01,1.08,.12,1.95,.99,2.01,2.11,0,.1,0,.2-.01,.31-.09,1.11-.97,2.02-2.12,2.09Zm11.74,.53c-1.93,.12-3.59-1.35-3.7-3.28-.12-1.93,1.36-3.59,3.29-3.7,1.93-.12,3.59,1.35,3.7,3.28,.12,1.93-1.36,3.59-3.29,3.7Zm6.1,4.14c2.04-.12,3.79,1.43,3.91,3.46,.12,2.04-1.43,3.78-3.47,3.91-2.04,.12-3.79-1.43-3.91-3.46-.12-2.04,1.43-3.79,3.47-3.91Zm-29.59-5.55c-.38,.02-.7-.26-.72-.64-.02-.28,.14-.52,.36-.64,.08-.04,.17-.07,.27-.08,.38-.02,.7,.26,.72,.64,.01,.19-.05,.36-.17,.49-.12,.13-.28,.22-.47,.23Zm6.56,11.83c-.66,.04-1.23-.47-1.27-1.12-.04-.66,.46-1.23,1.12-1.27s1.23,.47,1.27,1.12c.04,.66-.46,1.23-1.13,1.27Zm24.74,22.19c-.8,.05-1.49-.57-1.54-1.37-.04-.71,.45-1.31,1.12-1.48,1.05-.11,1.74,.5,1.79,1.3-.06,.89-.62,1.5-1.37,1.54Zm24.68,21.15c-.38,.02-.7-.26-.72-.64-.02-.38,.26-.7,.64-.72,.38-.02,.7,.26,.72,.64s-.26,.7-.64,.72Zm29.87,10.18c-.52,.03-.96-.36-.99-.88-.02-.37,.17-.69,.47-.86,.12-.07,.26-.12,.41-.13,.44-.03,.81,.26,.94,.66,.09,.74-.3,1.18-.82,1.21Zm9.95-29.33c2.41-.14,4.48,1.69,4.63,4.1,.14,2.41-1.69,4.48-4.1,4.63-2.41,.14-4.48-1.7-4.63-4.11-.14-2.41,1.69-4.48,4.1-4.63Zm-5.95-1.58c-2.96,.18-5.51-2.08-5.69-5.05-.18-2.97,2.08-5.51,5.05-5.69,2.96-.17,5.51,2.08,5.69,5.05,.18,2.97-2.08,5.51-5.05,5.69Zm12.52,13.57c2.04-.12,3.79,1.43,3.91,3.47,.12,2.04-1.43,3.78-3.47,3.91-2.04,.12-3.79-1.43-3.91-3.47-.12-2.04,1.43-3.78,3.47-3.91Zm7.78,3.23c-.14-2.27,1.59-4.22,3.86-4.35,2.27-.13,4.22,1.6,4.35,3.86,.14,2.27-1.59,4.22-3.86,4.35-2.27,.14-4.22-1.59-4.35-3.86Zm10.47,8.35c1.5-.09,2.79,1.05,2.88,2.55,.03,.45-.07,.87-.23,1.25-.4,.9-1.26,1.57-2.32,1.63-1.5,.09-2.79-1.05-2.88-2.55,.02-1.6,1.11-2.79,2.55-2.88Zm8.72,2.2c-.1-1.71,1.2-3.18,2.92-3.29,1.72-.1,3.19,1.21,3.29,2.92,.1,1.72-1.21,3.18-2.92,3.29-1.71,.1-3.19-1.21-3.29-2.92Zm11.35,11.03c.06,.94-.67,1.76-1.61,1.82s-1.76-.67-1.82-1.61c-.06-.95,.66-1.76,1.61-1.82,.95-.06,1.76,.66,1.82,1.61Zm-11.92,.71c.05,.8-.57,1.49-1.37,1.54-.8,.05-1.49-.57-1.54-1.37-.05-.81,.56-1.5,1.37-1.54,.8-.05,1.49,.57,1.54,1.37Zm-17.39-10.67c.08,1.25-.88,2.33-2.13,2.4-1.25,.07-2.32-.88-2.4-2.13-.08-1.25,.88-2.32,2.13-2.4,1.25-.07,2.32,.88,2.4,2.13Zm-14.03-.88c.95-.06,1.76,.66,1.82,1.61,.06,.95-.67,1.76-1.61,1.82-.95,.06-1.76-.66-1.82-1.61-.06-.95,.66-1.76,1.61-1.82Zm51.34,10.35c-.06-1.07,.75-1.99,1.83-2.06,1.07-.06,1.99,.76,2.06,1.83,.07,1.07-.75,1.99-1.82,2.05-1.07,.06-1.99-.75-2.06-1.82Zm-44.68,3.23c-.31,.02-.56-.21-.58-.52-.02-.3,.21-.56,.51-.58,.31-.02,.57,.21,.58,.52,.02,.3-.21,.56-.52,.58Zm11.69-.18c-.59,.03-1.1-.42-1.13-1-.03-.59,.41-1.1,1-1.13,.59-.04,1.1,.41,1.13,1,.04,.59-.41,1.09-1,1.13Zm68.41,1.12c-4.17-.19-8.24-.86-12.25-1.7-2.72-.59-5.39-1.31-8.03-2.13-.33,.44-.83,.76-1.42,.79-1.07,.06-1.99-.76-2.06-1.83-1.29-.54-2.59-1.01-3.87-1.5-2.79-1.08-5.53-2.27-8.23-3.54-1.71-.81-3.41-1.66-5.08-2.53-.41-.12-.78-.32-1.11-.58-4.69-2.52-9.22-5.32-13.59-8.36-.35-.25-.7-.51-1.05-.76-.39,.14-.81,.26-1.25,.28-2.41,.14-4.48-1.69-4.63-4.1-.01-.19,0-.38,.02-.57-3.29-2.6-6.46-5.37-9.48-8.3-.72,1.56-2.24,2.7-4.08,2.81-2.66,.16-4.95-1.87-5.11-4.53-.13-2.12,1.14-3.98,3-4.74-.39-.45-.8-.88-1.19-1.33-.19-.22-.36-.45-.55-.67-.78,.48-1.66,.8-2.64,.86-3.16,.19-5.88-2.22-6.07-5.38-.11-1.79,.64-3.43,1.87-4.55-.28-.42-.54-.86-.81-1.29-.48,.15-.97,.27-1.5,.3-3.19,.19-5.93-2.11-6.39-5.21-.11,2.88-2.36,5.27-5.3,5.45-.36,.02-.71,0-1.06-.04-.28,1.07-.45,2.23-.52,3.44,.57,.74,.93,1.66,.99,2.66,.06,1.02-.2,1.98-.68,2.8,.26,1.72,.67,3.47,1.18,5.21,.29-.1,.6-.17,.92-.19,2.09-.13,3.88,1.47,4.01,3.56,.1,1.64-.86,3.08-2.29,3.69,.86,1.9,1.82,3.78,2.89,5.61,.52-.5,1.19-.83,1.96-.87,1.72-.1,3.19,1.21,3.29,2.92,.06,1.01-.38,1.93-1.09,2.54-.5,.43-1.12,.71-1.83,.75-1.65,.1-3.07-1.12-3.26-2.75-.05-.53,0-.88,.1-1.21-3.75-2.97-7.21-6.43-10.32-10.35-1.98-2.55-3.81-5.31-5.3-8.44-1.35-2.84-2.4-6-2.88-9.5-.21-.76-.24-1.44-.23-2.13,0-.93,.05-1.87,.17-2.81,.22-1.69,.64-3.36,1.28-4.99,.34-.86,.75-1.72,1.2-2.56,1.79-3.34,4.49-6.55,8.09-9.61,.99-.84,1.93-1.57,2.91-2.3,.41,.51,.83,1.02,1.25,1.52,.08,.1,.16,.19,.23,.29,1.48,1.79,2.99,3.56,4.51,5.31,1.32,1.52,2.64,3.02,3.99,4.51,.19,.2,.38,.4,.56,.61,.13,.14,.27,.29,.4,.43,2.1,2.3,4.23,4.54,6.39,6.75,.12,.12,.24,.25,.36,.37,1.27,1.29,2.55,2.58,3.84,3.85,.98,.96,1.97,1.92,2.96,2.86,.46,.44,.92,.9,1.38,1.34,2.29,2.14,4.61,4.22,6.94,6.25,.52,.45,1.04,.89,1.56,1.34,2.37,2.04,4.75,4.01,7.16,5.93,3.05,2.43,6.12,4.79,9.23,7.04,2.49,1.8,5,3.54,7.53,5.22,3.73,2.49,7.5,4.86,11.3,7.08,1.86,1.09,3.72,2.15,5.59,3.17,2.67,1.46,5.36,2.83,8.05,4.15,2.08,1.02,4.16,2,6.25,2.94,1.16,.52,2.31,1.03,3.47,1.53,3.85,1.64,7.72,3.14,11.61,4.5,.08,.07,.15,.15,.23,.22,.16,.16,.33,.31,.49,.47-1.35,.05-2.7,.03-4.03-.03Zm35.95-8.43c-.02-.31,.21-.57,.52-.58,.3-.02,.56,.21,.58,.52,.02,.3-.21,.57-.52,.58-.3,.02-.56-.21-.58-.51Zm21.24-7.06c-8.81-.2-17.65-.64-26.5-1.58-.16-.14-.34-.19-.53-.23-.67-.14-1.34-.31-2.02-.46-2.26-.51-4.51-1.08-6.76-1.7-1.82-.5-3.64-1.04-5.45-1.61-4.44-1.4-8.85-3.01-13.24-4.83-2.38-.99-4.75-2.02-7.11-3.13-.89-.42-1.78-.86-2.67-1.29-2.01-.98-4-2-5.99-3.07-.98-.53-1.97-1.05-2.95-1.6-2.58-1.44-5.15-2.95-7.7-4.53-.12-.07-.24-.16-.36-.23-2.62-1.63-5.21-3.33-7.79-5.09-.32-.22-.65-.44-.97-.66-3.05-2.12-6.06-4.33-9.05-6.64-.19-.15-.38-.3-.57-.45-1.66-1.29-3.3-2.6-4.94-3.95-.47-.39-.95-.78-1.43-1.18-3.22-2.69-6.39-5.49-9.51-8.39-.2-.19-.4-.37-.61-.56-2.24-2.09-4.45-4.22-6.64-6.42-.75-.76-1.49-1.53-2.24-2.29-.49-.51-.98-1.02-1.46-1.53-.23-.24-.47-.48-.7-.73-.5-.53-1.01-1.05-1.51-1.59-.36-.38-.7-.78-1.06-1.16-.79-.86-1.57-1.72-2.35-2.59-1.61-1.8-3.21-3.63-4.78-5.49,.5-.16,.99-.32,1.5-.46,.95-.28,1.9-.55,2.87-.8,1.33-.34,2.69-.65,4.05-.94,.93-.2,1.86-.38,2.8-.56,.33-.06,.67-.12,1-.17,.38-.07,.76-.14,1.14-.2,2.9-.48,5.87-.84,8.89-1.11,.71-.06,1.43-.13,2.15-.19,3.13-.23,6.3-.38,9.53-.43,.69-.01,1.39-.02,2.08-.02,2.58-.02,5.18,.01,7.8,.09,.79,.02,1.57,.05,2.36,.08l1,.04c1.3,.05,2.6,.12,3.9,.19,.87,.05,1.74,.1,2.61,.16,1.35,.09,2.7,.19,4.06,.29,.61,.04,1.23,.09,1.84,.14,1.49,.12,2.97,.25,4.47,.39,.25,.02,.49,.05,.74,.07,.74,.07,1.48,.14,2.22,.22,2.6,.26,5.2,.54,7.82,.83,.93,.11,1.86,.22,2.8,.33,2.85,.33,5.71,.69,8.56,1.05,1.2,.15,2.4,.31,3.6,.47,2.77,.36,5.54,.72,8.3,1.08,1.1,.14,2.13,.28,3.15,.42,2.45,.32,4.91,.64,7.36,.96,.84,.11,1.68,.21,2.52,.32,.29,.04,.58,.07,.87,.11,2.84,.36,5.69,.71,8.53,1.04,.46,.05,.91,.1,1.37,.15,1.48,.17,2.96,.34,4.44,.5,.54,.06,1.08,.11,1.61,.16,.58,.06,1.15,.12,1.73,.17,.28,.03,.55,.06,.83,.08,3.41,.34,6.81,.63,10.2,.89,.32,.02,.63,.04,.95,.07,3.64,.26,7.26,.46,10.85,.59,.32,.01,.64,.03,.96,.03,3.48,.12,6.92,.15,10.34,.12,.64,0,1.28,0,1.92-.02,3.05-.06,6.08-.21,9.07-.42,1.17-.08,2.33-.17,3.5-.28,2.4-.22,4.78-.5,7.13-.83,.63-.09,1.27-.16,1.9-.26,1.44-.22,2.84-.5,4.24-.77,1.13-.22,2.25-.44,3.35-.69,4.04-.89,7.93-1.97,11.65-3.24,1.79-.49,3.56-1.06,5.33-1.67,5.68-1.97,11.26-4.49,16.69-7.31-6.78,5.59-14.08,10.77-22.25,14.77-1.46,.71-2.95,1.41-4.47,2.04-4.99,2.09-10.26,3.67-15.63,4.76-5.37,1.09-10.81,1.7-16.19,2.06-1,.07-1.99,.09-2.98,.14,1.46,.68,2.52,2.1,2.62,3.82,.15,2.5-1.76,4.65-4.26,4.8-2.5,.15-4.65-1.76-4.8-4.26-.11-1.76,.82-3.33,2.24-4.17-2.25,.08-4.48,.12-6.71,.15,1.41,.85,2.4,2.36,2.5,4.13,.17,2.86-2.01,5.31-4.86,5.48-2.86,.17-5.31-2.01-5.48-4.86-.12-1.97,.89-3.73,2.46-4.7-2.17,0-4.34,.01-6.5,0,1.79,.87,3.08,2.62,3.21,4.74,.19,3.13-2.19,5.81-5.32,6-2.94,.18-5.46-1.93-5.91-4.78-.09,3.14-2.54,5.75-5.73,5.93-2.57,.15-4.85-1.3-5.89-3.49-.78,2.48-3,4.35-5.75,4.51-2.51,.15-4.75-1.17-5.93-3.2-.94,2.27-3.1,3.94-5.72,4.1-2.46,.15-4.66-1.08-5.92-3-1.04,2.17-3.16,3.74-5.73,3.89-2.43,.15-4.62-1.01-5.95-2.85-.49,.92-1.17,1.72-2.01,2.33,.64-.27,1.32-.46,2.05-.5,2.84-.17,5.33,1.61,6.22,4.17,.58-2.53,2.74-4.48,5.45-4.64,3.23-.19,6,2.22,6.31,5.41-.07-3.07,2.28-5.67,5.37-5.85,3.16-.19,5.88,2.22,6.07,5.38,.19,3.16-2.22,5.88-5.38,6.07-3.09,.18-5.74-2.12-6.03-5.17,.08,3.21-2.38,5.93-5.62,6.13-2.72,.16-5.09-1.52-5.97-3.96-.58,2.65-2.84,4.71-5.68,4.88-2.6,.16-4.92-1.31-5.98-3.53-.79,2.42-2.98,4.23-5.67,4.39-2.58,.16-4.89-1.25-6.02-3.4-.87,2.31-3.02,4.01-5.64,4.17-2.58,.15-4.88-1.24-6.04-3.37-.53,1.34-1.49,2.46-2.73,3.19,.29,.19,.58,.37,.87,.55,.63-.29,1.31-.48,2.04-.52,3.16-.19,5.88,2.22,6.07,5.38,.11,.16,.22,.22,.33,.28-.01-.1-.04-.2-.05-.3-.19-3.13,2.19-5.81,5.32-6,3.13-.19,5.81,2.19,6,5.32,.14,2.33-1.15,4.41-3.11,5.4,1.14,.58,2.28,1.15,3.43,1.7,.09-.01,.18-.04,.28-.04,1.72-.1,3.25,.76,4.12,2.11,1.15,.52,2.31,1.03,3.47,1.54,.12-2.18,1.84-3.98,4.08-4.12,2.41-.14,4.48,1.7,4.63,4.11,.07,1.19-.34,2.29-1.06,3.12,2.69,1.03,5.4,2.01,8.14,2.92,2.21,.74,4.45,1.44,6.7,2.12,.59-.01,1.14,.17,1.59,.48,2.37,.7,4.77,1.35,7.17,1.97,.26,.07,.52,.14,.79,.21-.04-.14-.07-.29-.09-.45-.08-1.31,.87-2.39,2.12-2.46,.82-.05,1.55,.34,1.99,.97,.23,.33,.38,.73,.41,1.16,.04,.67-.22,1.28-.66,1.72,4.77,1.16,9.57,2.21,14.4,3.19,.4,.08,.79,.16,1.18,.25-.55-.01-1.09-.03-1.64-.04Zm-2.18-5.79c.06,.95-.66,1.76-1.61,1.82-.95,.06-1.76-.66-1.82-1.61-.06-.95,.67-1.76,1.61-1.82,.95-.06,1.76,.67,1.82,1.61Zm-31.82-13.92c2.27-.13,4.22,1.59,4.35,3.86,.14,2.27-1.59,4.22-3.86,4.35-2.27,.14-4.22-1.59-4.35-3.86-.14-2.27,1.59-4.22,3.86-4.35Zm-5.96-1.77c-3,.18-5.58-2.11-5.76-5.11-.18-3,2.11-5.58,5.11-5.76,3-.18,5.58,2.11,5.76,5.11,.18,3-2.11,5.58-5.11,5.76Zm6.16-5.82c-.17-2.86,2.01-5.31,4.87-5.48,2.86-.17,5.31,2.01,5.48,4.86,.17,2.86-2.01,5.31-4.86,5.48-2.86,.17-5.31-2.01-5.48-4.86Zm11.48,7.32c2.04-.12,3.79,1.43,3.91,3.46,.12,2.04-1.43,3.79-3.47,3.91-2.04,.12-3.79-1.43-3.91-3.46-.12-2.04,1.43-3.79,3.47-3.91Zm.54-8.04c-.16-2.66,1.87-4.95,4.53-5.11,2.66-.16,4.95,1.87,5.11,4.53,.16,2.66-1.87,4.95-4.53,5.11-2.66,.16-4.95-1.87-5.11-4.53Zm49.21-2.95c-.08-1.25,.88-2.33,2.13-2.4,1.25-.07,2.33,.88,2.4,2.13,0,1.33-.93,2.33-2.13,2.4-.3,.02-.59-.03-.86-.12-.85-.29-1.48-1.06-1.54-2.01Zm9.99-12.3c.09,1.43-1,2.66-2.43,2.74-1.43,.09-2.66-1-2.74-2.43-.09-1.43,1-2.66,2.43-2.74,1.43-.09,2.66,1,2.74,2.43Zm-1.14-11.64c-.12-2.04,1.43-3.79,3.47-3.91,2.04-.12,3.79,1.43,3.91,3.46,.12,2.04-1.43,3.78-3.47,3.91-2.03,.12-3.79-1.43-3.91-3.46Zm8.76,11.18c-.05-.8,.56-1.5,1.37-1.54,.7-.04,1.29,.43,1.47,1.08,.03,.1,.07,.18,.08,.29,.05,.8-.56,1.49-1.37,1.54-.22,.01-.42-.03-.61-.1-.52-.2-.9-.68-.93-1.26Zm3.87-11.94c-.09-1.5,1.05-2.79,2.55-2.88,1.5-.09,2.79,1.05,2.88,2.55,.09,1.5-1.05,2.79-2.55,2.88-1.5,.09-2.79-1.05-2.88-2.56Zm15.83-.95c.05,.8-.57,1.49-1.37,1.54-.8,.05-1.49-.57-1.54-1.37-.05-.8,.57-1.49,1.37-1.54,.81-.05,1.5,.57,1.54,1.37Zm-22.19,24.74c.04,.66-.47,1.23-1.13,1.27-.66,.04-1.23-.47-1.27-1.12-.04-.66,.46-1.23,1.12-1.27,.66-.04,1.23,.47,1.27,1.12Zm-17.31,12.74c.02,.38-.26,.7-.64,.72-.38,.02-.7-.26-.72-.64-.02-.38,.26-.7,.64-.72,.38-.02,.7,.26,.72,.64Zm-1.87-19.79c-1.93,.12-3.59-1.35-3.7-3.28-.12-1.93,1.36-3.59,3.29-3.7,1.93-.12,3.59,1.35,3.7,3.28,.12,1.93-1.35,3.59-3.28,3.7Zm-2.24,8.33c.1,1.72-1.2,3.19-2.92,3.29-1.72,.1-3.19-1.2-3.29-2.92-.1-1.72,1.21-3.19,2.92-3.29,1.71-.1,3.19,1.2,3.29,2.92Zm-9.38-6.86c-2.36,.14-4.38-1.66-4.52-4.01-.14-2.36,1.65-4.38,4.01-4.52,2.36-.14,4.38,1.66,4.52,4.01,.14,2.36-1.65,4.38-4.01,4.52Zm-1.54,7.51c.13,2.12-1.49,3.95-3.62,4.08-2.12,.13-3.95-1.49-4.08-3.62-.13-2.13,1.49-3.95,3.62-4.08,2.12-.13,3.95,1.49,4.08,3.62Zm-6.49,12.09c.08,1.38-.97,2.56-2.34,2.64-1.37,.09-2.56-.96-2.64-2.34-.08-1.37,.97-2.56,2.34-2.64,1.37-.08,2.56,.96,2.64,2.34Zm-3.59-18.29c-2.7,.16-5.02-1.89-5.18-4.59-.16-2.7,1.89-5.01,4.59-5.18,2.7-.16,5.02,1.89,5.18,4.59,.16,2.7-1.9,5.02-4.59,5.18Zm-1.06,6.87c.14,2.41-1.69,4.48-4.1,4.63-2.41,.14-4.48-1.69-4.63-4.1-.14-2.41,1.69-4.48,4.1-4.63,2.41-.15,4.48,1.69,4.63,4.1Zm-10.57-5.69c-2.96,.18-5.51-2.08-5.69-5.05-.18-2.97,2.08-5.51,5.05-5.69,2.96-.18,5.51,2.08,5.69,5.05,.18,2.97-2.08,5.51-5.05,5.69Zm.88,14.76c1.77-.1,3.29,1.24,3.39,3.01,.11,1.77-1.24,3.29-3.01,3.39-1.77,.11-3.29-1.24-3.39-3.01-.11-1.77,1.24-3.29,3.01-3.39Zm21.8,1.91c-.06-.95,.66-1.76,1.61-1.82,.56-.03,1.05,.22,1.38,.61,.24,.28,.41,.61,.43,1,.06,.94-.66,1.76-1.61,1.82-.79,.05-1.46-.46-1.7-1.18-.05-.14-.11-.28-.12-.44Zm-3.47,10.97c.52-.03,.96,.36,1,.88,.03,.52-.36,.96-.88,.99-.52,.03-.96-.36-.99-.88-.03-.52,.36-.96,.88-.99Zm-54.06-19.23c.18,3.09-2.17,5.75-5.26,5.93-3.09,.18-5.75-2.17-5.93-5.26-.18-3.09,2.17-5.75,5.26-5.93,3.09-.19,5.74,2.17,5.93,5.26ZM481.2,203.51c-.17,.16-.34,.31-.51,.47-.65,.6-1.29,1.2-1.94,1.8-2.26,1.65-4.56,3.31-6.87,4.97-6,4.32-12.19,8.66-18.55,13.03-1.84,1.26-3.7,2.53-5.57,3.8-3.37,2.29-6.78,4.58-10.24,6.88-2.94,1.95-5.9,3.91-8.9,5.87-2.45,1.6-4.89,3.2-7.38,4.8-3.2,2.06-6.44,4.12-9.71,6.19-.64,.41-1.28,.81-1.92,1.21-1.33,.84-2.68,1.67-4.01,2.51-.67,.42-1.34,.84-2.01,1.26-.52,.33-1.04,.65-1.56,.98-2.3,1.43-4.63,2.87-6.96,4.3-1.1,.68-2.2,1.35-3.31,2.03-2.15,1.31-4.31,2.63-6.48,3.94-.86,.52-1.72,1.04-2.58,1.56-1.6,.96-3.19,1.93-4.8,2.89-1.17,.7-2.37,1.4-3.54,2.1-2.47,1.47-4.93,2.93-7.43,4.4-.61,.36-1.24,.72-1.85,1.08-.38,.22-.77,.45-1.15,.67-1.4,.82-2.8,1.63-4.2,2.44-.35,.2-.69,.4-1.03,.6-.6,.35-1.19,.69-1.79,1.04-2.17,1.25-4.35,2.5-6.54,3.76-1.46,.84-2.92,1.67-4.39,2.51-1.79,1.02-3.59,2.04-5.39,3.05-1.14,.65-2.3,1.29-3.44,1.94-.74,.41-1.48,.83-2.22,1.25-.75,.42-1.45,.82-2.16,1.21-1.29,.72-2.58,1.43-3.88,2.15-2.33,1.29-4.67,2.59-7.02,3.88-.99,.54-1.97,1.08-2.96,1.62-.2,.11-.4,.22-.6,.33-1.36,.74-2.72,1.48-4.08,2.21-1.3,.71-2.43,1.33-3.57,1.94-1.06,.57-2.11,1.15-3.17,1.72-.84,.45-1.68,.89-2.52,1.34-1.51,.81-3.02,1.61-4.52,2.41-2.24,1.19-4.48,2.38-6.71,3.56-.38,.2-.77,.4-1.15,.6-.59,.31-1.18,.62-1.77,.93-1.37,.72-2.74,1.44-4.11,2.15-.79,.41-1.58,.83-2.36,1.24-2.67,1.39-5.14,2.65-7.6,3.92-1.49,.77-2.98,1.54-4.47,2.3-1.83,.94-3.66,1.86-5.49,2.78-1.2,.61-2.4,1.22-3.6,1.82-.19,.1-.38,.19-.58,.29-1.27,.64-2.55,1.29-3.82,1.92-.22,.11-.45,.22-.67,.33-.94,.47-1.88,.93-2.81,1.4-2.36,1.18-4.72,2.35-7.07,3.51-1.39,.68-2.77,1.35-4.15,2.02-1.74,.85-3.48,1.7-5.21,2.54-1.2,.58-2.4,1.17-3.6,1.75-1.64,.79-3.27,1.56-4.9,2.34-1.16,.55-2.31,1.11-3.47,1.66-2.51,1.19-5.01,2.36-7.51,3.53-1.18,.55-2.36,1.1-3.54,1.65-1.38,.64-2.75,1.28-4.12,1.91-1.36-2.71-2.69-5.45-3.97-8.23-.35-.76-.69-1.53-1.03-2.3-1.46-3.22-2.87-6.47-4.23-9.77,.8-.48,1.59-.98,2.38-1.49,.76-.49,1.52-.99,2.25-1.5,2.3-1.6,4.51-3.32,6.64-5.12,1.16-.98,2.29-2,3.4-3.04,.18-.17,.35-.33,.53-.5,1.06-1.01,2.11-2.05,3.12-3.11,.45-.47,.9-.93,1.34-1.41,.33-.36,.66-.73,.98-1.09,2.09-2.32,4.09-4.74,6-7.26,.66-.87,1.3-1.75,1.95-2.64,1.57-2.18,3.09-4.43,4.55-6.74,.43-.67,.85-1.35,1.27-2.03,.37-.61,.74-1.22,1.11-1.83,.35-.58,.69-1.17,1.03-1.76,.64-1.11,1.27-2.22,1.89-3.35,.94-1.7,1.85-3.43,2.75-5.18,.12-.23,.24-.45,.35-.68,.63-1.24,1.25-2.49,1.87-3.75,.19-.39,.38-.79,.57-1.18,1.03-2.15,2.04-4.34,3.03-6.54,.66-1.47,1.31-2.95,1.95-4.43,.1-.23,.2-.47,.3-.71,.97-2.28,1.93-4.58,2.86-6.9,.58-1.44,1.16-2.88,1.73-4.33,.15-.37,.29-.74,.44-1.12,.84-2.16,1.67-4.33,2.5-6.5,.06-.16,.12-.32,.19-.49,.45-1.19,.9-2.39,1.35-3.59,.28-.76,.56-1.51,.84-2.27,.7-1.89,1.39-3.78,2.09-5.67,.13-.36,.26-.71,.39-1.07,.3-.81,.6-1.63,.89-2.45,.05-.15,.11-.3,.16-.45,.13-.35,.26-.71,.39-1.06,.34-.93,.68-1.85,1.01-2.77,.52-1.44,1.05-2.87,1.57-4.31,.18-.49,.36-.98,.54-1.47,.12-.32,.24-.65,.36-.98,.97-2.62,1.94-5.22,2.91-7.82,.25-.66,.5-1.32,.75-1.98,.25-.66,.42-1.11,.59-1.56,1.38-3.62,2.79-7.2,4.23-10.73,.18-.44,.36-.88,.54-1.31,1.55-3.77,3.14-7.48,4.78-11.11,.09-.21,.19-.42,.29-.62,1.73-3.8,3.53-7.52,5.41-11.14,.13-.25,.26-.51,.39-.75,1.68-3.21,3.43-6.34,5.26-9.38,.5-.83,.93-1.5,1.35-2.18,.46-.73,.92-1.47,1.39-2.2,.78-1.2,1.56-2.39,2.37-3.56,.17-.25,.36-.5,.54-.75,1.63-2.32,3.3-4.58,5.06-6.75,.82-1.01,1.66-2,2.51-2.98,2.01-2.32,4.11-4.55,6.3-6.67,3.29-3.18,6.8-6.13,10.56-8.81,.96-.69,1.95-1.35,2.95-2,.6-.4,1.19-.81,1.81-1.19,.78,.52,1.32,1.38,1.39,2.39,.1,1.72-1.2,3.19-2.92,3.29-1.13,.07-2.14-.48-2.74-1.34-1.54,2.05-2.99,4.14-4.36,6.27,.47-.21,.98-.35,1.52-.39,2.41-.15,4.48,1.69,4.63,4.11,.14,2.41-1.69,4.48-4.1,4.62-2.41,.14-4.48-1.69-4.63-4.1-1.35,2.28-2.6,4.64-3.74,7.03,.77-.49,1.66-.82,2.64-.88,3.09-.18,5.74,2.17,5.93,5.26,.19,3.09-2.17,5.74-5.26,5.93-2.88,.17-5.36-1.87-5.83-4.65-.71,1.71-1.36,3.43-1.98,5.16,.61-.25,1.26-.42,1.96-.46,2.69-.16,5.08,1.38,6.16,3.68,.79-2.33,2.91-4.06,5.52-4.22,2.84-.17,5.33,1.61,6.22,4.17,.58-2.52,2.74-4.48,5.46-4.64,3.23-.19,6,2.22,6.31,5.41-.07-3.07,2.28-5.67,5.37-5.85,3.16-.19,5.88,2.22,6.07,5.38,.19,3.16-2.22,5.87-5.38,6.06-3.09,.19-5.73-2.12-6.03-5.17,.08,3.21-2.38,5.93-5.62,6.13-2.72,.16-5.09-1.52-5.97-3.96-.58,2.65-2.84,4.71-5.68,4.89-.73,.04-1.43-.06-2.09-.26,.91,.51,1.68,1.22,2.28,2.07,1.1-1.98,3.14-3.39,5.57-3.54,2.57-.15,4.86,1.15,6.15,3.18,1.03-2.05,3.06-3.53,5.52-3.68,2.62-.16,4.96,1.24,6.17,3.39,.94-2.16,3-3.74,5.51-3.89,2.75-.16,5.18,1.43,6.25,3.8,.77-2.3,2.86-4.02,5.43-4.17,3.19-.19,5.93,2.11,6.39,5.21,.1-2.88,2.36-5.28,5.3-5.45,3.13-.19,5.81,2.2,6,5.32,.19,3.13-2.19,5.81-5.32,6-2.94,.17-5.46-1.93-5.91-4.78-.09,3.13-2.54,5.74-5.73,5.93-2.57,.15-4.85-1.3-5.89-3.49-.42,1.34-1.27,2.5-2.4,3.31,.74-.34,1.54-.56,2.39-.61,2.67-.16,5.05,1.28,6.26,3.48,.92-2.12,2.95-3.68,5.42-3.82,2.9-.17,5.43,1.63,6.34,4.24,.6-2.44,2.7-4.33,5.35-4.49,3.25-.19,6.04,2.28,6.24,5.53,.19,3.25-2.28,6.05-5.54,6.24-2.64,.16-4.96-1.46-5.84-3.82-.33,1.48-1.15,2.79-2.33,3.68,.71-.3,1.47-.52,2.28-.57,2.65-.16,5.01,1.23,6.27,3.37,.98-2.05,2.98-3.53,5.41-3.68,2.85-.17,5.35,1.55,6.35,4.06,.69-2.34,2.76-4.12,5.34-4.27,3.29-.2,6.11,2.31,6.31,5.59,.2,3.29-2.31,6.11-5.59,6.31-2.58,.16-4.85-1.37-5.82-3.61-.69,2.62-2.97,4.62-5.82,4.79-.62,.04-1.22-.04-1.8-.18,.89,.58,1.62,1.35,2.17,2.27,.98-2.04,2.98-3.5,5.39-3.65,2.89-.17,5.42,1.6,6.39,4.17,.65-2.36,2.72-4.17,5.31-4.32,3.25-.19,6.04,2.28,6.24,5.53,.2,3.25-2.28,6.04-5.53,6.24-2.58,.15-4.85-1.39-5.78-3.66-.33,1.36-1.09,2.56-2.14,3.43,.64-.25,1.31-.43,2.03-.47,2.69-.16,5.09,1.27,6.34,3.47,.95-2.05,2.94-3.53,5.36-3.68,3.03-.18,5.69,1.8,6.48,4.61,.46-2.5,2.56-4.47,5.22-4.63,3.13-.19,5.81,2.2,6,5.32,.09,1.59-.48,3.06-1.47,4.15,1.14-.61,2.28-1.2,3.42-1.8-.47-.7-.78-1.51-.83-2.41-.16-2.7,1.89-5.02,4.59-5.18,2.17-.13,4.07,1.18,4.83,3.1,9.42-4.88,18.88-9.63,28.34-14.35,3.29-1.64,6.59-3.29,9.88-4.93,.2-.1,.4-.2,.6-.3Z"/></g></g></svg>