<svg xmlns="http://www.w3.org/2000/svg" width="34.591" height="34.583" viewBox="0 0 34.591 34.583">
  <defs>
    <style>
      .cls-1 {
        fill: #1a1a1a;
      }
    </style>
  </defs>
  <path id="Icon_awesome-instagram" data-name="Icon awesome-instagram" class="cls-1" d="M17.294,10.663a8.867,8.867,0,1,0,8.867,8.867A8.853,8.853,0,0,0,17.294,10.663Zm0,14.631a5.765,5.765,0,1,1,5.765-5.765A5.775,5.775,0,0,1,17.294,25.294ZM28.592,10.3a2.068,2.068,0,1,1-2.068-2.068A2.063,2.063,0,0,1,28.592,10.3Zm5.873,2.1c-.131-2.77-.764-5.224-2.794-7.246S27.195,2.5,24.425,2.359c-2.855-.162-11.413-.162-14.269,0A10.287,10.287,0,0,0,2.91,5.145C.88,7.167.255,9.621.116,12.391-.046,15.247-.046,23.8.116,26.66c.131,2.77.764,5.224,2.794,7.246s4.476,2.655,7.246,2.794c2.855.162,11.413.162,14.269,0,2.77-.131,5.224-.764,7.246-2.794s2.655-4.476,2.794-7.246c.162-2.855.162-11.406,0-14.261ZM30.776,29.723a5.836,5.836,0,0,1-3.287,3.287c-2.276.9-7.678.695-10.194.695s-7.925.2-10.194-.695a5.836,5.836,0,0,1-3.287-3.287c-.9-2.276-.695-7.678-.695-10.194s-.2-7.925.695-10.194A5.836,5.836,0,0,1,7.1,6.048c2.276-.9,7.678-.695,10.194-.695s7.925-.2,10.194.695a5.836,5.836,0,0,1,3.287,3.287c.9,2.276.695,7.678.695,10.194S31.679,27.455,30.776,29.723Z" transform="translate(0.005 -2.238)"/>
</svg>
