<svg xmlns="http://www.w3.org/2000/svg" width="35.993" height="30.823" viewBox="0 0 35.993 30.823">
  <defs>
    <style>
      .cls-1 {
        fill: #1a1a1a;
      }
    </style>
  </defs>
  <path id="Icon_awesome-twitter" data-name="Icon awesome-twitter" class="cls-1" d="M32.293,11.062c.023.337.023.674.023,1.011,0,10.282-7.422,22.13-20.988,22.13A20.072,20.072,0,0,1,0,30.712a14.48,14.48,0,0,0,1.781.1,14.3,14.3,0,0,0,9.158-3.323,7.45,7.45,0,0,1-6.9-5.394,8.834,8.834,0,0,0,1.393.12,7.423,7.423,0,0,0,1.941-.265,7.688,7.688,0,0,1-5.915-7.634v-.1A7.142,7.142,0,0,0,4.8,15.2,7.891,7.891,0,0,1,1.507,8.727a8.043,8.043,0,0,1,1-3.925,20.632,20.632,0,0,0,15.21,8.139,9.24,9.24,0,0,1-.183-1.782,7.582,7.582,0,0,1,7.377-7.778,7.188,7.188,0,0,1,5.39,2.456,14.076,14.076,0,0,0,4.682-1.878,7.7,7.7,0,0,1-3.243,4.286,14.192,14.192,0,0,0,4.248-1.2,16.355,16.355,0,0,1-3.7,4.021Z" transform="translate(0 -3.381)"/>
</svg>
