<svg xmlns="http://www.w3.org/2000/svg" width="46.047" height="32.377" viewBox="0 0 46.047 32.377">
  <defs>
    <style>
      .cls-1 {
        fill: #1a1a1a;
      }
    </style>
  </defs>
  <path id="Icon_awesome-youtube" data-name="Icon awesome-youtube" class="cls-1" d="M46.135,9.566a5.786,5.786,0,0,0-4.071-4.1C38.473,4.5,24.074,4.5,24.074,4.5s-14.4,0-17.99.968a5.786,5.786,0,0,0-4.071,4.1C1.05,13.18,1.05,20.721,1.05,20.721s0,7.541.962,11.155a5.7,5.7,0,0,0,4.071,4.032c3.591.968,17.99.968,17.99.968s14.4,0,17.99-.968a5.7,5.7,0,0,0,4.071-4.032c.962-3.614.962-11.155.962-11.155s0-7.541-.962-11.155Zm-26.771,18V13.875L31.4,20.721,19.364,27.568Z" transform="translate(-1.05 -4.5)"/>
</svg>
